<?xml version="1.0" encoding="UTF-8"?>
<svg width="519px" height="518px" viewBox="0 0 519 518" version="1.1" xmlns="http://www.w3.org/2000/svg" xmlns:xlink="http://www.w3.org/1999/xlink">
    <title>Icon Group</title>
    <g id="Page-1" stroke="none" stroke-width="1" fill="none" fill-rule="evenodd">
        <g id="Icon-Group" transform="translate(10.000000, 9.000000)" fill="#2456DE" fill-rule="nonzero" stroke="#2456DE">
            <path d="M316.666667,59.5703125 L300,59.5703125 L300,29.296875 L333.333333,29.296875 L333.333333,0 L166.666667,0 L166.666667,29.296875 L200,29.296875 L200,59.5703125 C189.752604,59.5703125 111.657987,59.5703125 100,59.5703125 L100,323.242188 L200,323.242188 L200,340.267182 L226.875,411.132812 L0,411.132812 L0,500 L500,500 L500,411.132812 L273.125,411.132812 L300,340.267182 L300,323.242188 L316.666667,323.242188 C362.955729,323.242188 405.434028,300.674438 426.940104,264.648438 L500,264.648438 L500,118.164062 L426.940104,118.164062 C405.434028,82.1380615 362.955729,59.5703125 316.666667,59.5703125 Z M233,29.3005671 L273,29.3005671 L273,68.9981096 L233,68.9981096 L233,29.3005671 Z M133,206.049149 L200,206.049149 L200,245.746692 L133,245.746692 L133,206.049149 Z M233,186.443323 C235.546875,184.59304 238.026041,182.624248 240.432292,180.529301 C247.255208,195.22834 258.510416,208.421157 273,219.289654 L273,335.922419 L253,379.962193 L233,335.922419 C233,311.570565 233,204.384178 233,186.443323 Z M133,187.145558 L133,147.448015 L173,147.448015 L173,187.145558 L133,187.145558 Z M133,88.8468809 L173,88.8468809 L173,128.544423 L133,128.544423 L133,88.8468809 Z M133,304.347826 L133,264.650284 L200,264.650284 L200,304.347826 C180.070117,304.347826 153.344271,304.347826 133,304.347826 Z M467,235.349716 L406.625147,235.349716 L398.485644,249.633743 C382.919336,276.969493 351.621581,293.950851 316.8125,293.950851 L300.125,293.950851 L300.125,240.084352 C315.308887,246.436623 332.278858,250 350.1875,250 L350.1875,220.699433 C304.179541,220.699433 266.75,187.839305 266.75,147.448015 L266.75,118.147448 L233.375,118.147448 C233.375,138.058862 218.673486,162.468371 200,172.319161 L200,88.8468809 L316.8125,88.8468809 C351.621581,88.8468809 382.919336,105.828238 398.489991,133.160174 L406.625147,147.448015 L467,147.448015 L467,235.349716 Z" id="Shape" stroke-width="16.82"></path>
            <path d="M381,371 L411.4,371 C411.4,350.1575 431.856667,333.2 457,333.2 L457,308 C415.093125,308 381,336.261406 381,371 Z" id="Path" stroke-width="20"></path>
            <path d="M76,371 C76,336.261406 41.9068753,308 0,308 L0,333.2 C25.1433333,333.2 45.6,350.1575 45.6,371 L76,371 Z" id="Path" stroke-width="20"></path>
        </g>
    </g>
</svg>