<?xml version="1.0" encoding="UTF-8"?>
<svg width="556px" height="631px" viewBox="0 0 556 631" version="1.1" xmlns="http://www.w3.org/2000/svg" xmlns:xlink="http://www.w3.org/1999/xlink">
    <title>Shape</title>
    <g id="Page-1" stroke="none" stroke-width="1" fill="none" fill-rule="evenodd">
        <g id="Group" transform="translate(5.000000, 5.000000)" fill="#2456DE" fill-rule="nonzero" stroke="#2456DE" stroke-width="8.82">
            <path d="M345.8,73.9863281 L327.6,73.9863281 L327.6,36.3867188 L364,36.3867188 L364,0 L182,0 L182,36.3867188 L218.4,36.3867188 L218.4,73.9863281 C207.209844,73.9863281 121.930521,73.9863281 109.2,73.9863281 L109.2,401.466797 L218.4,401.466797 L218.4,422.61184 L247.7475,510.626953 L0,510.626953 L0,621 L546,621 L546,510.626953 L298.2525,510.626953 L327.6,422.61184 L327.6,401.466797 L345.8,401.466797 C396.347656,401.466797 442.733958,373.437653 466.218594,328.693359 L546,328.693359 L546,146.759766 L466.218594,146.759766 C442.733958,102.015472 396.347656,73.9863281 345.8,73.9863281 Z M254.8,36.3867187 L291.2,36.3867187 L291.2,73.9863281 L254.8,73.9863281 L254.8,36.3867187 Z M145.6,255.919922 L218.4,255.919922 L218.4,292.306641 L145.6,292.306641 L145.6,255.919922 Z M254.8,231.453644 C257.117656,229.160522 259.373698,226.720527 261.563386,224.124183 C267.772239,242.341233 278.014479,258.691566 291.2,272.161285 L291.2,416.708473 L273,471.288551 L254.8,416.708473 C254.8,386.528344 254.8,253.688392 254.8,231.453644 Z M145.6,219.533203 L145.6,183.146484 L182,183.146484 L182,219.533203 L145.6,219.533203 Z M145.6,110.373047 L182,110.373047 L182,146.759766 L145.6,146.759766 L145.6,110.373047 Z M145.6,365.080078 L145.6,328.693359 L218.4,328.693359 L218.4,365.080078 C196.744844,365.080078 167.705417,365.080078 145.6,365.080078 Z M509.6,292.306641 L443.752969,292.306641 L434.875729,310.045166 C417.898542,343.99189 383.764062,365.080078 345.8,365.080078 L327.6,365.080078 L327.6,298.186317 C344.160105,306.074844 362.668177,310.5 382.2,310.5 L382.2,274.113281 C332.022031,274.113281 291.2,233.306145 291.2,183.146484 L291.2,146.759766 L254.8,146.759766 C254.8,171.486626 238.765989,201.799415 218.4,214.032555 L218.4,110.373047 L345.8,110.373047 C383.764062,110.373047 417.898542,131.461235 434.880469,165.403221 L443.752969,183.146484 L509.6,183.146484 L509.6,292.306641 Z" id="Shape"></path>
        </g>
    </g>
</svg>