<svg width="977" height="136" viewBox="0 0 977 136" fill="none" xmlns="http://www.w3.org/2000/svg">
<path d="M34.776 10.608C45.432 10.32 61.752 10.176 83.736 10.176C105.816 10.176 117.816 10.272 119.736 10.464C122.424 10.848 124.248 11.808 125.208 13.344C126.264 14.88 126.984 18.048 127.368 22.848C127.656 25.152 128.04 28.272 128.52 32.208C129.48 38.352 130.2 51.648 130.68 72.096C131.064 91.584 130.968 104.592 130.392 111.12C129.816 117.552 128.472 121.344 126.36 122.496C124.536 123.36 113.736 122.88 93.96 121.056L76.824 119.328L43.128 119.616C20.76 119.808 9.144 119.712 8.28 119.328C7.512 119.136 6.792 118.608 6.12 117.744C5.736 117.168 5.496 116.352 5.4 115.296C5.304 114.336 5.304 111.744 5.4 107.52C5.496 101.376 5.16 95.28 4.392 89.232C1.992 70.032 0.791999 51.216 0.791999 32.784C0.791999 23.568 0.887999 18.048 1.08 16.224C1.272 14.304 1.992 13.056 3.24 12.48C4.968 11.616 15.48 10.992 34.776 10.608ZM111.672 22.128C108.984 21.936 106.728 21.84 104.904 21.84C96.84 22.128 85.944 22.416 72.216 22.704C69.624 22.704 68.184 22.848 67.896 23.136C67.608 23.328 67.656 24.384 68.04 26.304L68.616 28.608L71.352 28.32C72.984 28.128 75 27.648 77.4 26.88C80.856 25.728 83.16 26.112 84.312 28.032C85.272 29.568 85.416 30.912 84.744 32.064C84.072 33.12 82.392 34.464 79.704 36.096C74.424 39.168 69.336 42.768 64.44 46.896C59.544 50.928 55.704 54.72 52.92 58.272C51.48 60.096 50.472 61.152 49.896 61.44C49.224 61.824 48.36 62.016 47.304 62.016C46.248 61.92 45.432 61.632 44.856 61.152C43.8 60.576 43.224 59.664 43.128 58.416C43.032 57.072 43.176 53.904 43.56 48.912C44.04 42.768 44.232 38.208 44.136 35.232C44.04 33.12 44.04 31.824 44.136 31.344C44.232 30.768 44.568 30.192 45.144 29.616C45.816 28.944 46.44 28.56 47.016 28.464C47.688 28.368 49.656 28.32 52.92 28.32H59.256L58.824 25.728L58.392 23.136H39.24C25.992 23.04 18.072 22.896 15.48 22.704L11.016 22.416L10.44 24.144C10.152 25.2 10.008 25.824 10.008 26.016C10.008 26.112 11.832 26.256 15.48 26.448C19.128 26.544 21.816 26.976 23.544 27.744C25.176 28.608 26.328 29.568 27 30.624C27.672 31.68 28.152 33.312 28.44 35.52C29.016 40.32 29.448 49.776 29.736 63.888C30.12 78 30.168 87.504 29.88 92.4C29.496 97.776 28.776 101.04 27.72 102.192C26.76 103.344 24.12 103.92 19.8 103.92H14.472L14.328 107.232C14.232 109.536 14.184 110.736 14.184 110.832C14.28 110.928 21.864 110.832 36.936 110.544L59.544 110.256L59.4 108.384C59.304 107.136 59.16 106.368 58.968 106.08C58.776 105.984 57.192 105.84 54.216 105.648C49.896 105.36 47.304 104.544 46.44 103.2C45.672 101.76 44.76 97.152 43.704 89.376C43.416 87.168 43.512 85.2 43.992 83.472C44.472 81.744 45.24 80.16 46.296 78.72C47.448 77.28 49.512 75.168 52.488 72.384C56.04 69.024 58.44 67.152 59.688 66.768C61.416 66.384 62.856 66.576 64.008 67.344C65.256 68.112 67.176 70.032 69.768 73.104C73.512 77.52 77.4 82.32 81.432 87.504C85.464 92.592 87.912 95.76 88.776 97.008C89.256 97.872 89.496 99.072 89.496 100.608C89.592 102.048 89.448 103.296 89.064 104.352C88.488 105.6 87.624 106.416 86.472 106.8C85.416 107.184 83.592 107.28 81 107.088C72.36 106.512 68.04 106.368 68.04 106.656C68.04 106.752 68.088 106.896 68.184 107.088C68.376 107.568 68.472 108.24 68.472 109.104V110.4H72.648C75.336 110.4 82.44 110.928 93.96 111.984C105.96 113.136 113.304 113.76 115.992 113.856L121.032 114.144L121.32 112.704C121.512 111.744 121.608 110.544 121.608 109.104C121.608 108.048 121.512 107.424 121.32 107.232C121.224 106.944 120.888 106.8 120.312 106.8C119.16 106.8 117.336 106.56 114.84 106.08C112.44 105.504 110.472 104.88 108.936 104.208C104.616 102.576 100.68 100.032 97.128 96.576C93.672 93.12 89.304 87.552 84.024 79.872C81.048 75.552 78.696 72.336 76.968 70.224C73.32 65.52 70.872 61.728 69.624 58.848C68.472 55.872 68.28 53.184 69.048 50.784C69.624 49.152 70.488 47.712 71.64 46.464C72.888 45.216 74.904 43.632 77.688 41.712C81.24 39.504 84.216 37.248 86.616 34.944C91.416 30.528 95.112 27.792 97.704 26.736C100.392 25.68 104.616 25.296 110.376 25.584C115.176 25.776 117.576 25.776 117.576 25.584C117.576 25.296 117.288 24.672 116.712 23.712C116.232 23.04 115.752 22.656 115.272 22.56C114.888 22.368 113.688 22.224 111.672 22.128ZM160.202 52.224C162.89 51.36 165.434 51.456 167.834 52.512C170.234 53.472 172.106 55.248 173.45 57.84C175.466 59.952 176.954 62.64 177.914 65.904C179.642 71.184 179.978 76.896 178.922 83.04C177.77 89.568 175.322 94.752 171.578 98.592C166.97 103.392 161.306 105.024 154.586 103.488C150.074 102.432 146.858 98.976 144.938 93.12C143.402 88.608 142.874 83.424 143.354 77.568C143.93 71.616 145.37 66.432 147.674 62.016C150.746 56.544 154.73 53.28 159.626 52.224C159.818 52.224 160.01 52.224 160.202 52.224ZM180.65 48.768C176.426 44.352 171.482 41.616 165.818 40.56C158.138 39.12 151.13 40.992 144.794 46.176C138.074 51.648 133.466 59.856 130.97 70.8C130.874 71.76 130.826 72.672 130.826 73.536C130.058 84.672 131.69 93.84 135.722 101.04C139.946 108.72 146.522 112.56 155.45 112.56C159.962 112.56 163.322 112.368 165.53 111.984C168.794 111.504 171.674 110.496 174.17 108.96C179.93 105.504 184.202 100.752 186.986 94.704C187.178 94.224 187.37 93.744 187.562 93.264C188.33 91.248 188.81 89.376 189.002 87.648C189.674 83.04 189.578 77.952 188.714 72.384C187.946 66.816 186.506 61.488 184.394 56.4C183.242 53.712 181.994 51.168 180.65 48.768ZM135.29 9.16799C136.922 8.78399 138.842 8.44799 141.05 8.16C147.674 7.19999 156.266 6.71999 166.826 6.71999H166.97C174.266 6.23999 180.41 6.04799 185.402 6.144C189.242 6.24 192.41 6.528 194.906 7.008C196.538 7.296 197.882 7.632 198.938 8.01599C199.706 8.112 200.426 8.208 201.098 8.304C202.346 8.49599 203.354 8.68799 204.122 8.88C205.658 9.264 206.81 9.888 207.578 10.752C208.154 11.52 208.586 12.336 208.874 13.2C208.97 13.584 209.018 14.016 209.018 14.496V14.784V14.928V15.072L208.874 15.216C208.874 23.184 208.586 34.128 208.01 48.048C207.914 48.816 207.818 50.016 207.722 51.648C207.242 62.88 206.906 71.28 206.714 76.848C206.714 80.016 206.81 84.816 207.002 91.248C207.002 92.784 207.002 93.984 207.002 94.848C207.29 103.776 207.098 110.928 206.426 116.304C206.426 116.4 206.378 116.64 206.282 117.024V117.168C206.282 117.744 206.234 118.272 206.138 118.752C205.946 119.52 205.754 120.24 205.562 120.912C205.082 122.16 204.41 123.12 203.546 123.792C202.778 124.368 201.626 124.704 200.09 124.8C199.418 124.896 198.458 124.944 197.21 124.944C195.098 124.944 192.218 124.896 188.57 124.8C181.658 124.608 173.162 124.224 163.082 123.648C153.386 123.072 144.986 122.496 137.882 121.92C134.138 121.632 131.258 121.392 129.242 121.2C128.09 121.008 127.178 120.864 126.506 120.768C125.066 120.576 124.01 120.144 123.338 119.472C122.954 119.184 122.618 118.848 122.33 118.464C121.466 117.888 120.794 117.072 120.314 116.016C119.642 114.768 119.066 110.16 118.586 102.192C118.202 96.528 117.818 88.56 117.434 78.288C117.338 75.216 117.194 71.376 117.002 66.768C117.002 66 117.002 65.088 117.002 64.032C116.906 62.688 116.858 61.824 116.858 61.44C116.762 59.328 116.714 57.648 116.714 56.4C116.426 49.2 116.234 44.832 116.138 43.296C115.946 40.896 115.802 37.392 115.706 32.784C115.61 32.304 115.562 31.92 115.562 31.632C115.562 28.56 115.514 26.16 115.418 24.432C115.418 24.336 115.418 24.144 115.418 23.856C115.322 23.568 115.274 23.232 115.274 22.848C115.178 22.464 115.13 22.176 115.13 21.984C115.034 21.024 114.986 20.112 114.986 19.248C114.89 17.52 114.89 16.128 114.986 15.072C115.082 14.208 115.274 13.44 115.562 12.768C115.85 12.096 116.186 11.52 116.57 11.04C117.434 10.272 118.442 9.79199 119.594 9.6C124.106 9.12 129.338 8.976 135.29 9.16799ZM218.504 9.6C220.904 9.40799 224.888 9.31199 230.456 9.31199C236.12 9.31199 240.824 9.40799 244.568 9.6C248.984 9.984 256.664 10.752 267.608 11.904L283.736 13.776L299 13.488C313.976 13.2 322.616 13.632 324.92 14.784C327.128 15.936 329.096 18.672 330.824 22.992C334.664 32.4 338.408 47.664 342.056 68.784C343.304 75.888 343.928 81.744 343.928 86.352C343.832 93.36 343.496 100.704 342.92 108.384C342.44 115.968 341.912 120.288 341.336 121.344C340.664 122.688 339.224 123.456 337.016 123.648C334.808 123.84 327.8 123.888 315.992 123.792C253.592 122.928 217.592 122.64 207.992 122.928L196.472 123.36L194.024 122.208C192.392 121.344 191.288 120.576 190.712 119.904C189.752 118.56 189.272 116.016 189.272 112.272C189.272 108.528 189.752 102.288 190.712 93.552C191 90.384 191.144 87.408 191.144 84.624C191.144 81.84 190.952 75.36 190.568 65.184C190.088 50.4 189.944 39.6 190.136 32.784C190.232 25.392 190.664 20.544 191.432 18.24C192.104 15.84 193.592 14.064 195.896 12.912C198.2 11.952 202.808 11.136 209.72 10.464C212.312 10.272 215.24 9.984 218.504 9.6ZM218.36 40.848C217.592 40.464 215.672 40.176 212.6 39.984C209.624 39.792 207.848 39.792 207.272 39.984C207.08 40.08 206.168 40.224 204.536 40.416L202.52 40.848L202.664 44.304C202.76 46.704 202.856 47.952 202.952 48.048C203.144 48.144 204.584 48 207.272 47.616C209.96 47.136 212.648 46.944 215.336 47.04C218.024 47.136 219.8 47.472 220.664 48.048C221.816 48.816 222.536 49.824 222.824 51.072C223.208 52.32 223.448 54.912 223.544 58.848C223.736 64.608 223.496 72.336 222.824 82.032C222.152 91.632 221.432 98.112 220.664 101.472C220.28 103.392 219.752 104.832 219.08 105.792C218.024 107.424 216.44 108.48 214.328 108.96C212.312 109.344 210.104 109.104 207.704 108.24L205.256 107.376V110.4V113.424L211.736 113.712C215.768 113.904 221.912 114 230.168 114H242.264L241.976 112.992C241.784 112.32 241.688 111.312 241.688 109.968V107.808L238.52 107.52C235.832 107.232 233.768 106.704 232.328 105.936C230.984 105.072 229.832 103.728 228.872 101.904C228.2 100.56 227.528 99.264 226.856 98.016C225.608 95.52 224.984 91.968 224.984 87.36C224.984 82.56 225.656 77.856 227 73.248C228.92 67.008 230.552 62.64 231.896 60.144C233.24 57.648 235.16 55.488 237.656 53.664C240.152 51.84 242.36 50.88 244.28 50.784C246.2 50.592 248.264 51.168 250.472 52.512C251.72 53.28 253.064 54.432 254.504 55.968C256.04 57.504 257.096 58.848 257.672 60C259.88 64.32 261.464 70.704 262.424 79.152C262.808 82.32 263.048 87.072 263.144 93.408C263.336 99.648 263.288 103.008 263 103.488C262.52 104.352 261.608 105.168 260.264 105.936C258.92 106.704 257.672 107.088 256.52 107.088C256.232 107.088 255.608 107.136 254.648 107.232C253.688 107.232 253.016 107.232 252.632 107.232H250.616V109.248C250.616 110.496 250.712 111.6 250.904 112.56L251.192 113.856L268.616 114.288C280.136 114.384 285.944 114.384 286.04 114.288C286.136 114.288 286.088 113.088 285.896 110.688C285.8 108.768 285.56 107.664 285.176 107.376C284.888 107.088 283.688 106.752 281.576 106.368C280.04 106.176 278.936 105.84 278.264 105.36C277.688 104.88 277.016 103.968 276.248 102.624C275.768 101.664 275.48 100.512 275.384 99.168C275.288 97.824 275.24 93.984 275.24 87.648C275.24 79.008 275.48 73.392 275.96 70.8C278.744 57.936 285.272 51.456 295.544 51.36C298.232 51.36 300.296 51.744 301.736 52.512C303.464 53.376 304.856 54.528 305.912 55.968C306.968 57.312 307.88 59.28 308.648 61.872C309.416 64.368 309.896 67.248 310.088 70.512C310.376 73.776 310.472 79.632 310.376 88.08C310.28 95.472 310.136 100.08 309.944 101.904C309.848 103.728 309.608 104.976 309.224 105.648C308.552 106.8 307.736 107.52 306.776 107.808C305.816 108.096 303.704 108.192 300.44 108.096L294.68 107.952L294.968 110.976C295.064 112.992 295.208 114.096 295.4 114.288C295.496 114.48 301.832 114.672 314.408 114.864L333.416 115.008L333.56 113.28C333.752 112.512 333.848 111.696 333.848 110.832C333.944 109.872 333.944 109.104 333.848 108.528C333.752 107.952 333.656 107.664 333.56 107.664C332.696 107.664 331.16 107.472 328.952 107.088C326.84 106.704 325.448 106.416 324.776 106.224C323.912 105.84 323 105.216 322.04 104.352C321.08 103.392 320.504 101.952 320.312 100.032C320.216 98.112 320.312 93.984 320.6 87.648C321.08 79.104 320.36 71.04 318.44 63.456C316.52 55.872 313.784 50.352 310.232 46.896C308.216 44.976 305.576 43.488 302.312 42.432C299.048 41.376 295.928 40.992 292.952 41.28C289.496 41.664 285.608 43.056 281.288 45.456C277.928 47.472 275.192 49.968 273.08 52.944C272.12 54.384 271.304 55.344 270.632 55.824C270.056 56.208 269.192 56.4 268.04 56.4C267.08 56.4 266.168 56.064 265.304 55.392C264.536 54.72 263.336 53.232 261.704 50.928C259.592 48.144 256.184 45.984 251.48 44.448C246.776 42.912 242.552 42.528 238.808 43.296C237.176 43.68 235.976 44.208 235.208 44.88C234.44 45.552 233.816 46.608 233.336 48.048C232.856 49.68 232.232 50.832 231.464 51.504C230.792 52.08 229.88 52.416 228.728 52.512C227.48 52.608 226.472 52.272 225.704 51.504C225.032 50.736 223.928 48.912 222.392 46.032C220.664 42.96 219.32 41.232 218.36 40.848ZM353.487 9.6C355.887 9.40799 359.871 9.31199 365.439 9.31199C371.103 9.31199 375.807 9.40799 379.551 9.6C383.967 9.984 391.647 10.752 402.591 11.904L418.719 13.776L433.983 13.488C448.959 13.2 457.599 13.632 459.903 14.784C462.111 15.936 464.079 18.672 465.807 22.992C469.647 32.4 473.391 47.664 477.039 68.784C478.287 75.888 478.911 81.744 478.911 86.352C478.815 93.36 478.479 100.704 477.903 108.384C477.423 115.968 476.895 120.288 476.319 121.344C475.647 122.688 474.207 123.456 471.999 123.648C469.791 123.84 462.783 123.888 450.975 123.792C388.575 122.928 352.575 122.64 342.975 122.928L331.455 123.36L329.007 122.208C327.375 121.344 326.271 120.576 325.695 119.904C324.735 118.56 324.255 116.016 324.255 112.272C324.255 108.528 324.735 102.288 325.695 93.552C325.983 90.384 326.127 87.408 326.127 84.624C326.127 81.84 325.935 75.36 325.551 65.184C325.071 50.4 324.927 39.6 325.119 32.784C325.215 25.392 325.647 20.544 326.415 18.24C327.087 15.84 328.575 14.064 330.879 12.912C333.183 11.952 337.791 11.136 344.703 10.464C347.295 10.272 350.223 9.984 353.487 9.6ZM353.343 40.848C352.575 40.464 350.655 40.176 347.583 39.984C344.607 39.792 342.831 39.792 342.255 39.984C342.063 40.08 341.151 40.224 339.519 40.416L337.503 40.848L337.647 44.304C337.743 46.704 337.839 47.952 337.935 48.048C338.127 48.144 339.567 48 342.255 47.616C344.943 47.136 347.631 46.944 350.319 47.04C353.007 47.136 354.783 47.472 355.647 48.048C356.799 48.816 357.519 49.824 357.807 51.072C358.191 52.32 358.431 54.912 358.527 58.848C358.719 64.608 358.479 72.336 357.807 82.032C357.135 91.632 356.415 98.112 355.647 101.472C355.263 103.392 354.735 104.832 354.063 105.792C353.007 107.424 351.423 108.48 349.311 108.96C347.295 109.344 345.087 109.104 342.687 108.24L340.239 107.376V110.4V113.424L346.719 113.712C350.751 113.904 356.895 114 365.151 114H377.247L376.959 112.992C376.767 112.32 376.671 111.312 376.671 109.968V107.808L373.503 107.52C370.815 107.232 368.751 106.704 367.311 105.936C365.967 105.072 364.815 103.728 363.855 101.904C363.183 100.56 362.511 99.264 361.839 98.016C360.591 95.52 359.967 91.968 359.967 87.36C359.967 82.56 360.639 77.856 361.983 73.248C363.903 67.008 365.535 62.64 366.879 60.144C368.223 57.648 370.143 55.488 372.639 53.664C375.135 51.84 377.343 50.88 379.263 50.784C381.183 50.592 383.247 51.168 385.455 52.512C386.703 53.28 388.047 54.432 389.487 55.968C391.023 57.504 392.079 58.848 392.655 60C394.863 64.32 396.447 70.704 397.407 79.152C397.791 82.32 398.031 87.072 398.127 93.408C398.319 99.648 398.271 103.008 397.983 103.488C397.503 104.352 396.591 105.168 395.247 105.936C393.903 106.704 392.655 107.088 391.503 107.088C391.215 107.088 390.591 107.136 389.631 107.232C388.671 107.232 387.999 107.232 387.615 107.232H385.599V109.248C385.599 110.496 385.695 111.6 385.887 112.56L386.175 113.856L403.599 114.288C415.119 114.384 420.927 114.384 421.023 114.288C421.119 114.288 421.071 113.088 420.879 110.688C420.783 108.768 420.543 107.664 420.159 107.376C419.871 107.088 418.671 106.752 416.559 106.368C415.023 106.176 413.919 105.84 413.247 105.36C412.671 104.88 411.999 103.968 411.231 102.624C410.751 101.664 410.463 100.512 410.367 99.168C410.271 97.824 410.223 93.984 410.223 87.648C410.223 79.008 410.463 73.392 410.943 70.8C413.727 57.936 420.255 51.456 430.527 51.36C433.215 51.36 435.279 51.744 436.719 52.512C438.447 53.376 439.839 54.528 440.895 55.968C441.951 57.312 442.863 59.28 443.631 61.872C444.399 64.368 444.879 67.248 445.071 70.512C445.359 73.776 445.455 79.632 445.359 88.08C445.263 95.472 445.119 100.08 444.927 101.904C444.831 103.728 444.591 104.976 444.207 105.648C443.535 106.8 442.719 107.52 441.759 107.808C440.799 108.096 438.687 108.192 435.423 108.096L429.663 107.952L429.951 110.976C430.047 112.992 430.191 114.096 430.383 114.288C430.479 114.48 436.815 114.672 449.391 114.864L468.399 115.008L468.543 113.28C468.735 112.512 468.831 111.696 468.831 110.832C468.927 109.872 468.927 109.104 468.831 108.528C468.735 107.952 468.639 107.664 468.543 107.664C467.679 107.664 466.143 107.472 463.935 107.088C461.823 106.704 460.431 106.416 459.759 106.224C458.895 105.84 457.983 105.216 457.023 104.352C456.063 103.392 455.487 101.952 455.295 100.032C455.199 98.112 455.295 93.984 455.583 87.648C456.063 79.104 455.343 71.04 453.423 63.456C451.503 55.872 448.767 50.352 445.215 46.896C443.199 44.976 440.559 43.488 437.295 42.432C434.031 41.376 430.911 40.992 427.935 41.28C424.479 41.664 420.591 43.056 416.271 45.456C412.911 47.472 410.175 49.968 408.063 52.944C407.103 54.384 406.287 55.344 405.615 55.824C405.039 56.208 404.175 56.4 403.023 56.4C402.063 56.4 401.151 56.064 400.287 55.392C399.519 54.72 398.319 53.232 396.687 50.928C394.575 48.144 391.167 45.984 386.463 44.448C381.759 42.912 377.535 42.528 373.791 43.296C372.159 43.68 370.959 44.208 370.191 44.88C369.423 45.552 368.799 46.608 368.319 48.048C367.839 49.68 367.215 50.832 366.447 51.504C365.775 52.08 364.863 52.416 363.711 52.512C362.463 52.608 361.455 52.272 360.687 51.504C360.015 50.736 358.911 48.912 357.375 46.032C355.647 42.96 354.303 41.232 353.343 40.848ZM466.87 11.472C471.19 11.088 481.174 11.04 496.822 11.328C512.47 11.616 524.758 12.096 533.686 12.768C551.734 14.112 561.67 15.264 563.494 16.224C568.774 18.912 572.518 36.528 574.726 69.072C575.303 77.904 575.591 88.608 575.591 101.184C575.591 113.76 575.303 121.152 574.726 123.36C573.959 126.144 572.471 127.824 570.263 128.4C569.015 128.688 564.934 129.024 558.022 129.408C551.59 129.696 537.046 129.744 514.39 129.552C491.83 129.456 478.246 129.216 473.638 128.832C468.166 128.448 464.806 127.872 463.558 127.104C462.31 126.336 461.542 124.464 461.254 121.488C460.486 114 459.43 89.328 458.086 47.472C457.702 37.008 457.318 30.768 456.934 28.752C455.686 23.088 455.542 19.056 456.502 16.656C457.174 14.928 458.23 13.728 459.67 13.056C461.014 12.288 463.414 11.76 466.87 11.472ZM496.534 43.44C496.438 42.768 496.15 42.384 495.67 42.288C495.19 42.192 492.31 42.144 487.03 42.144C481.846 42.048 479.014 42.096 478.534 42.288C478.15 42.384 476.95 42.576 474.934 42.864C473.302 43.152 472.342 43.392 472.054 43.584C471.766 43.776 471.622 44.208 471.622 44.88C471.622 46.608 471.814 47.616 472.198 47.904C472.678 48.192 474.214 48.336 476.806 48.336C481.318 48.336 484.15 49.104 485.302 50.64C485.878 51.504 486.31 54.816 486.598 60.576C486.982 71.616 487.462 79.776 488.038 85.056C488.614 90.24 489.43 94.56 490.486 98.016C492.502 104.352 495.574 108.96 499.702 111.84C502.198 113.472 504.55 114.432 506.758 114.72C508.966 115.008 511.846 114.72 515.398 113.856C521.446 112.32 526.006 110.064 529.078 107.088C531.766 104.496 534.214 103.728 536.422 104.784C538.15 105.552 539.59 107.76 540.742 111.408L541.463 113.856L548.518 113.712C553.319 113.52 555.862 113.424 556.15 113.424C556.438 113.232 556.582 112.272 556.582 110.544V107.808L555.142 108.096C553.414 108.384 551.494 107.808 549.382 106.368C547.366 104.832 545.783 102.912 544.63 100.608C543.766 98.592 543.094 94.848 542.614 89.376C542.134 83.808 541.702 74.832 541.318 62.448C541.03 50.16 540.79 43.92 540.598 43.728C540.31 43.536 537.19 43.344 531.238 43.152L522.166 42.864L521.59 46.032C521.302 48.336 521.158 49.536 521.158 49.632C521.158 49.824 522.262 49.872 524.47 49.776C526.582 49.68 528.31 49.776 529.654 50.064C530.998 50.448 532.198 51.216 533.254 52.368C534.406 53.424 535.174 54.624 535.558 55.968C536.23 58.656 536.182 64.416 535.414 73.248C534.742 81.984 533.686 89.088 532.246 94.56C531.478 97.824 530.134 100.752 528.214 103.344C526.294 105.84 524.134 107.616 521.734 108.672C520.39 109.248 518.806 109.536 516.982 109.536C515.158 109.44 513.574 109.008 512.23 108.24C508.582 106.416 505.462 103.056 502.87 98.16C500.278 93.264 498.742 87.84 498.262 81.888C497.11 69.792 496.582 58.944 496.678 49.344C496.678 46.08 496.63 44.112 496.534 43.44ZM595.863 10.032C605.271 9.83999 616.263 9.79199 628.839 9.88799C641.415 9.98399 648.855 10.224 651.159 10.608C655.863 11.184 658.599 12.432 659.367 14.352C660.231 16.464 661.767 25.728 663.975 42.144C666.279 58.56 668.103 74.208 669.447 89.088C670.023 95.04 670.359 101.28 670.455 107.808C670.551 114.336 670.407 118.368 670.023 119.904C669.543 121.248 668.439 122.736 666.711 124.368C665.079 126.096 663.591 127.152 662.247 127.536C659.175 128.304 649.767 128.256 634.023 127.392C618.279 126.528 599.463 124.992 577.575 122.784C567.783 121.824 562.455 121.104 561.591 120.624C560.055 119.568 559.047 117.168 558.567 113.424C557.991 109.584 557.703 102.72 557.703 92.832C557.799 81.12 558.615 61.488 560.151 33.936C560.727 22.704 561.255 16.608 561.735 15.648C562.119 14.688 563.031 13.824 564.471 13.056C566.487 12.096 569.367 11.424 573.111 11.04C576.951 10.656 584.535 10.32 595.863 10.032ZM624.087 42.144C621.879 41.472 620.103 41.136 618.759 41.136C611.175 41.424 605.415 43.248 601.479 46.608C598.983 48.624 596.823 49.632 594.999 49.632C593.847 49.632 592.743 49.152 591.687 48.192C590.727 47.232 590.247 46.176 590.247 45.024V43.296L581.751 43.44C576.087 43.536 573.111 43.68 572.823 43.872C572.631 44.16 572.727 45.12 573.111 46.752L573.687 49.2L577.575 49.344C581.799 49.536 584.775 50.88 586.503 53.376C588.039 55.584 588.999 58.608 589.383 62.448C589.767 66.192 589.767 72.672 589.383 81.888C588.999 91.872 588.567 98.256 588.087 101.04C587.607 103.728 586.551 105.648 584.919 106.8C584.151 107.28 583.383 107.568 582.615 107.664C581.847 107.76 579.783 107.712 576.423 107.52L569.511 107.232L570.231 108.96C570.711 110.112 570.999 110.832 571.095 111.12C571.287 111.408 574.887 111.6 581.895 111.696C588.519 111.696 594.807 111.936 600.759 112.416C606.519 112.896 609.399 113.136 609.399 113.136C609.495 113.04 609.591 112.128 609.687 110.4L609.975 107.808L604.791 107.664C601.335 107.472 599.031 107.184 597.879 106.8C596.247 106.32 595.239 105.456 594.855 104.208C594.567 102.96 594.231 99.168 593.847 92.832C593.463 84.576 593.511 78.192 593.991 73.68C594.471 69.168 595.575 65.136 597.303 61.584C598.743 58.512 600.711 55.92 603.207 53.808C605.703 51.696 608.391 50.352 611.271 49.776C614.055 49.2 616.407 49.2 618.327 49.776C620.247 50.256 622.119 51.36 623.943 53.088C627.687 56.928 630.327 64.704 631.863 76.416C632.247 79.296 632.583 84.24 632.871 91.248C633.255 98.256 633.303 102.144 633.015 102.912C632.919 103.68 632.343 104.544 631.287 105.504C630.327 106.464 629.319 107.136 628.263 107.52C627.015 107.904 625.287 108.192 623.079 108.384C621.159 108.576 619.911 108.864 619.335 109.248C618.855 109.632 618.615 110.496 618.615 111.84V113.568L620.919 113.712C627.351 114.384 636.279 114.912 647.703 115.296L656.343 115.584V111.84V108.24H653.319C648.135 108.144 644.775 107.232 643.239 105.504C642.663 104.832 642.279 104.256 642.087 103.776C641.991 103.2 641.943 101.904 641.943 99.888C641.943 96.912 642.183 92.832 642.663 87.648C643.815 75.744 643.815 67.2 642.663 62.016C641.607 56.928 639.447 52.656 636.183 49.2C632.919 45.648 628.887 43.296 624.087 42.144ZM687.021 87.504C687.021 87.408 687.069 87.312 687.165 87.216C687.069 87.216 686.973 87.216 686.877 87.216C686.973 87.312 687.021 87.408 687.021 87.504ZM723.165 14.208C725.469 14.304 727.629 14.4 729.645 14.496C733.389 14.688 736.365 14.976 738.573 15.36C741.741 15.744 743.901 16.416 745.053 17.376C746.013 18.048 746.829 19.2 747.501 20.832C747.885 21.888 748.269 23.232 748.653 24.864C749.421 27.84 750.141 31.728 750.813 36.528C752.061 46.032 753.021 56.88 753.693 69.072C754.269 82.032 754.317 92.88 753.837 101.616C753.549 106.512 753.021 110.4 752.253 113.28C751.869 115.008 751.389 116.448 750.813 117.6C749.853 119.424 748.557 120.624 746.925 121.2C744.525 122.064 739.293 122.976 731.229 123.936C723.261 124.896 714.813 125.616 705.885 126.096C695.805 126.672 687.309 126.816 680.397 126.528C671.469 126.048 665.661 124.752 662.973 122.64C662.013 121.968 661.245 120.816 660.669 119.184C660.285 118.128 659.949 116.832 659.661 115.296C659.085 112.608 658.461 108.96 657.789 104.352C656.829 96.864 655.821 86.64 654.765 73.68C654.189 66.48 653.469 57.312 652.605 46.176C651.933 36.384 651.549 30.72 651.453 29.184V28.896C651.357 28.704 651.309 28.464 651.309 28.176V27.888C651.213 27.024 651.117 26.256 651.021 25.584C651.021 24.432 651.069 23.376 651.165 22.416C651.357 21.744 651.549 21.12 651.741 20.544C652.221 19.584 652.845 18.816 653.613 18.24C656.301 16.32 659.997 15.024 664.701 14.352C667.965 13.872 672.093 13.68 677.085 13.776C678.813 13.872 680.925 13.968 683.421 14.064C689.469 13.968 695.469 13.92 701.421 13.92C701.997 13.824 702.333 13.776 702.429 13.776C705.405 13.488 707.949 13.296 710.061 13.2C713.709 13.008 716.829 13.056 719.421 13.344C720.765 13.536 722.013 13.824 723.165 14.208ZM664.701 34.08C664.701 33.984 664.749 33.888 664.845 33.792H664.701C664.701 33.888 664.701 33.984 664.701 34.08ZM680.253 65.76C680.733 60.768 682.701 56.784 686.157 53.808C689.613 50.832 693.837 49.392 698.829 49.488C703.629 49.584 708.045 51.12 712.077 54.096C716.109 56.976 719.037 60.816 720.861 65.616C721.629 67.824 721.053 69.552 719.133 70.8C718.269 72.048 717.069 72.672 715.533 72.672C713.133 72.672 709.437 72.48 704.445 72.096C703.005 71.904 701.901 71.808 701.133 71.808C694.797 71.232 689.853 71.328 686.301 72.096C685.149 72.384 684.045 72.24 682.989 71.664C682.029 70.992 681.405 70.032 681.117 68.784V68.64C680.541 67.776 680.253 66.816 680.253 65.76ZM682.413 79.008C690.189 78.048 700.605 77.856 713.661 78.432C715.197 78.432 717.453 78.528 720.429 78.72C725.325 78.912 728.973 79.056 731.373 79.152C734.445 70.224 733.869 62.256 729.645 55.248C725.613 48.24 719.325 43.584 710.781 41.28C702.141 38.976 694.221 39.936 687.021 44.16C678.765 48.96 673.437 57.216 671.037 68.928C668.253 82.272 669.741 93.264 675.501 101.904C680.589 109.392 687.741 113.856 696.957 115.296C705.885 116.736 713.613 114.96 720.141 109.968C726.861 104.88 730.461 97.488 730.941 87.792C729.213 87.696 727.005 87.6 724.317 87.504C724.509 88.368 724.413 89.232 724.029 90.096C721.149 96.72 717.165 101.712 712.077 105.072C707.181 108.24 702.045 109.488 696.669 108.816C691.389 108.144 687.021 105.792 683.565 101.76C680.013 97.536 678.237 92.256 678.237 85.92C678.237 85.248 678.381 84.624 678.669 84.048C678.669 83.952 678.669 83.856 678.669 83.76C678.477 82.608 678.765 81.552 679.533 80.592C680.301 79.632 681.261 79.104 682.413 79.008ZM805.063 1.536C821.959 1.248 830.503 1.008 830.695 0.815998C830.887 0.623995 835.783 0.575993 845.383 0.671991C855.079 0.767996 861.127 0.911997 863.527 1.10399C868.807 1.58399 872.455 2.25599 874.471 3.11999C876.583 3.888 878.071 5.27999 878.935 7.29599C880.471 10.848 881.623 18.72 882.391 30.912C883.255 43.008 883.447 55.68 882.967 68.928C881.719 106.656 877.063 127.536 868.999 131.568C868.039 132.048 866.551 132.624 864.535 133.296C861.559 134.16 858.823 134.736 856.327 135.024C853.927 135.312 849.751 135.408 843.799 135.312C836.311 135.312 829.111 134.88 822.199 134.016C815.383 133.248 806.743 132.72 796.279 132.432C788.887 132.24 784.183 132.048 782.167 131.856C780.247 131.76 778.375 131.472 776.551 130.992C771.271 129.552 767.719 128.016 765.895 126.384C762.535 123.312 760.135 103.536 758.695 67.056C758.407 59.568 758.311 49.488 758.407 36.816C758.503 24.048 758.743 16.368 759.127 13.776C759.703 10.128 760.423 7.68 761.287 6.43199C762.055 5.08799 763.399 4.27199 765.319 3.98399C767.239 3.79199 768.727 3.6 769.783 3.408C774.007 2.544 785.767 1.92 805.063 1.536ZM825.943 17.808C815.575 15.216 805.927 17.376 796.999 24.288C791.623 28.416 786.967 34.608 783.031 42.864C779.191 51.12 776.983 59.376 776.407 67.632C776.023 73.68 776.935 80.256 779.143 87.36C781.447 94.368 784.471 100.32 788.215 105.216C791.479 109.344 797.479 112.608 806.215 115.008C808.615 115.68 812.503 116.016 817.879 116.016C823.351 116.016 827.287 115.68 829.687 115.008C836.119 113.28 841.303 110.784 845.239 107.52C849.175 104.16 852.151 99.792 854.167 94.416C854.839 92.592 855.175 89.952 855.175 86.496C855.271 83.04 855.031 80.064 854.455 77.568C853.879 75.36 852.919 72.912 851.575 70.224C850.231 67.536 848.839 65.328 847.399 63.6C844.327 60.048 840.391 57.216 835.591 55.104C830.887 52.992 825.943 51.936 820.759 51.936C817.207 51.936 813.271 52.608 808.951 53.952C804.631 55.296 800.983 57.024 798.007 59.136C794.743 61.344 792.151 61.488 790.231 59.568C789.271 58.704 788.839 57.648 788.935 56.4C789.031 55.152 789.703 52.944 790.951 49.776C793.063 44.4 795.607 39.936 798.583 36.384C803.191 31.008 808.423 27.552 814.279 26.016C820.231 24.384 825.895 24.96 831.271 27.744C833.191 28.704 834.487 29.52 835.159 30.192C835.831 30.864 836.167 31.776 836.167 32.928C836.167 33.888 835.639 34.944 834.583 36.096C832.663 38.016 832.567 39.744 834.295 41.28C835.831 42.816 838.423 43.872 842.071 44.448L843.655 44.88L844.951 41.424C846.487 37.968 847.303 35.328 847.399 33.504C847.591 31.584 847.111 29.904 845.959 28.464C844.519 26.64 841.735 24.624 837.607 22.416C833.479 20.208 829.591 18.672 825.943 17.808ZM814.279 55.968C822.055 54.816 828.775 56.208 834.439 60.144C838.087 62.736 840.775 66.192 842.503 70.512C844.231 74.832 844.663 79.392 843.799 84.192C843.031 88.704 841.831 92.496 840.199 95.568C838.855 98.16 836.551 100.656 833.287 103.056C830.119 105.456 826.903 107.088 823.639 107.952C818.167 109.392 812.455 108.816 806.503 106.224C800.647 103.632 796.519 99.936 794.119 95.136C792.583 92.16 791.911 88.224 792.103 83.328C792.583 75.456 795.751 68.592 801.607 62.736C805.255 58.992 809.479 56.736 814.279 55.968ZM886.2 5.568C889.656 5.37599 897.576 5.32799 909.96 5.424C922.344 5.52 931.704 5.712 938.04 5.99999C955.608 6.86399 965.592 7.87199 967.992 9.024C970.104 9.98399 971.784 13.104 973.032 18.384C974.376 23.568 975.48 31.44 976.344 42C976.728 46.8 976.92 56.592 976.92 71.376C976.92 86.16 976.728 95.808 976.344 100.32C975.384 111.264 974.088 118.176 972.456 121.056C971.112 123.36 967.608 124.992 961.944 125.952C956.28 126.912 946.536 127.536 932.712 127.824C922.344 128.016 912.12 127.872 902.04 127.392C892.056 126.912 884.904 126.192 880.584 125.232C877.608 124.656 875.592 123.36 874.536 121.344C873.288 119.328 872.424 113.184 871.944 102.912C871.464 92.544 871.416 79.824 871.8 64.752C872.184 51.984 872.424 39.84 872.52 28.32C872.52 19.776 872.664 14.592 872.952 12.768C873.144 10.944 873.72 9.45599 874.68 8.304C876.12 6.864 879.96 5.952 886.2 5.568ZM935.448 18.672C932.952 17.712 930.312 17.28 927.528 17.376C920.712 17.376 913.896 18.864 907.08 21.84C900.36 24.72 894.84 28.464 890.52 33.072C887.736 36.144 886.008 38.832 885.336 41.136C884.664 43.44 884.952 45.84 886.2 48.336C887.064 49.968 887.976 51.024 888.936 51.504C891.24 52.656 894.024 52.656 897.288 51.504C900.648 50.256 902.664 48.528 903.336 46.32C903.72 45.36 903.72 44.544 903.336 43.872C902.952 43.104 902.088 42.192 900.744 41.136C896.808 37.968 897.432 33.984 902.616 29.184C905.208 26.784 908.616 25.056 912.84 24C917.064 22.944 921.48 22.752 926.088 23.424C930.504 24 934.344 25.248 937.608 27.168C940.872 28.992 943.176 31.248 944.52 33.936C947.496 39.984 947.688 45.648 945.096 50.928C943.272 54.576 940.008 57.744 935.304 60.432C930.696 63.12 923.112 66.24 912.552 69.792C906.12 72 901.656 73.728 899.16 74.976C896.76 76.224 894.264 78.144 891.672 80.736C889.272 83.136 887.496 85.488 886.344 87.792C885.192 90.096 884.424 92.976 884.04 96.432C883.656 99.024 883.704 100.848 884.184 101.904C885.048 103.632 885.672 104.592 886.056 104.784C886.44 104.88 887.4 104.448 888.936 103.488C891.72 101.856 894.936 100.8 898.584 100.32C902.232 99.84 905.832 100.08 909.384 101.04C911.496 101.52 913.56 102.288 915.576 103.344C917.688 104.4 921.144 106.368 925.944 109.248C930.36 112.032 933.864 113.952 936.456 115.008C940.104 116.448 943.32 116.88 946.104 116.304C948.888 115.728 951.528 114.048 954.024 111.264C958.44 106.464 960.648 100.656 960.648 93.84C960.648 91.056 960.072 88.512 958.92 86.208C957.864 83.904 956.424 82.272 954.6 81.312C952.584 80.256 949.896 80.4 946.536 81.744C943.176 83.088 940.632 85.008 938.904 87.504C937.752 89.232 937.416 90.768 937.896 92.112C938.376 93.36 939.576 94.176 941.496 94.56C943.8 94.944 945.672 93.792 947.112 91.104C947.784 89.664 948.36 88.8 948.84 88.512C949.416 88.128 950.472 87.936 952.008 87.936C954.696 87.936 956.424 88.704 957.192 90.24C958.152 92.064 957.864 94.608 956.328 97.872C954.792 101.04 952.68 103.584 949.992 105.504C947.112 107.424 943.704 108.192 939.768 107.808C937.368 107.52 934.728 106.848 931.848 105.792C929.064 104.64 924.552 102.528 918.312 99.456C911.976 96.288 907.752 94.464 905.64 93.984C903.912 93.6 902.808 93.456 902.328 93.552C901.848 93.648 900.504 94.272 898.296 95.424C897.24 96 896.04 95.952 894.696 95.28C893.448 94.608 892.68 93.6 892.392 92.256C892.008 90.912 892.104 89.76 892.68 88.8C893.256 87.744 894.792 86.064 897.288 83.76C900.456 80.976 902.52 79.344 903.48 78.864C907.8 76.752 911.304 75.36 913.992 74.688C916.872 73.824 920.088 72.768 923.64 71.52C934.776 67.68 942.888 64.128 947.976 60.864C953.064 57.6 956.376 53.808 957.912 49.488C958.872 46.608 958.824 43.248 957.768 39.408C957.096 36.912 956.376 35.04 955.608 33.792C954.84 32.448 953.448 30.768 951.432 28.752C947.208 24.624 941.88 21.264 935.448 18.672Z" fill="#333333"/>
</svg>
