<svg width="84" height="37" viewBox="0 0 84 37" fill="none" xmlns="http://www.w3.org/2000/svg">
<path d="M2.728 0.799999C3.54933 0.741332 4.82533 0.917331 6.556 1.328C6.61467 1.65067 6.65867 1.84133 6.688 1.9C6.776 2.04666 6.93733 2.14933 7.172 2.208C7.612 2.12 8.24267 2.164 9.064 2.34C9.35733 2.48666 9.60667 2.868 9.812 3.484C10.1053 4.276 10.296 4.716 10.384 4.804C10.472 4.892 10.5893 4.99467 10.736 5.112C10.7067 5.22933 10.7067 5.39067 10.736 5.596C10.8533 5.62533 11.0587 5.71333 11.352 5.86C11.1173 5.948 10.956 5.992 10.868 5.992L10.736 6.388C10.7653 6.388 10.8093 6.46133 10.868 6.608C11.0147 6.608 11.3813 6.696 11.968 6.872C11.9973 7.312 11.9973 7.532 11.968 7.532C11.7627 7.56133 11.7333 8.06 11.88 9.028C11.4693 9.26267 11.044 9.512 10.604 9.776C10.6333 9.98133 10.6333 10.2747 10.604 10.656C10.604 10.6853 10.56 10.7587 10.472 10.876C10.384 10.964 10.34 11.0227 10.34 11.052L10.604 11.316C10.6627 11.5213 10.7507 11.8147 10.868 12.196C11.1907 12.196 11.352 12.196 11.352 12.196C11.3813 12.284 11.4693 12.416 11.616 12.592C11.4107 13.1493 11.3227 13.5307 11.352 13.736C11.4987 13.9707 11.6747 14.308 11.88 14.748C11.9093 14.9827 11.9827 15.8627 12.1 17.388C12.1293 17.3587 12.2467 17.344 12.452 17.344C12.54 17.344 12.5987 17.3147 12.628 17.256C12.5987 17.1387 12.5987 16.9773 12.628 16.772C12.7453 16.7133 12.9067 16.6253 13.112 16.508C13.2293 16.244 13.4933 15.9507 13.904 15.628C13.8747 15.628 14.168 15.672 14.784 15.76C15.3413 15.8187 15.928 15.6427 16.544 15.232C16.6027 15.056 16.6027 14.7627 16.544 14.352C16.4267 14.088 16.2507 13.956 16.016 13.956C15.8987 13.956 15.7227 14 15.488 14.088C15.2533 14.176 15.1067 14.22 15.048 14.22C14.9893 14.22 14.8867 14.2053 14.74 14.176C14.6227 14.1173 14.5053 14.088 14.388 14.088C14.388 13.8533 14.388 13.736 14.388 13.736L14.124 13.472C14.124 13.3547 14.212 12.9733 14.388 12.328C14.5933 11.6827 14.7253 11.3453 14.784 11.316C14.872 11.316 14.9893 11.316 15.136 11.316C15.4293 11.1987 15.8107 11.0667 16.28 10.92C16.5147 10.9787 16.7787 11.0227 17.072 11.052L17.16 10.788C17.5707 10.7587 18.216 10.6853 19.096 10.568C19.4187 10.392 19.8293 10.216 20.328 10.04C20.6213 10.0693 21.0467 10.0693 21.604 10.04C21.6333 10.04 21.78 9.98133 22.044 9.864C22.3373 9.71733 22.528 9.644 22.616 9.644C22.6747 9.67333 22.836 9.74666 23.1 9.864C23.364 9.98133 23.54 10.04 23.628 10.04C23.8627 9.92266 24.112 9.79066 24.376 9.644C25.08 9.52666 25.7253 9.52666 26.312 9.644C26.4293 9.79066 26.5907 9.92266 26.796 10.04C26.972 9.98133 27.192 9.93733 27.456 9.908C27.8373 9.79067 28.0867 9.74667 28.204 9.776C28.556 9.864 28.9667 10.26 29.436 10.964C29.9053 11.6387 30.14 12.2693 30.14 12.856C30.14 12.9733 30.1253 13.0907 30.096 13.208C30.0667 13.3253 29.92 13.516 29.656 13.78C29.392 14.044 29.2013 14.1907 29.084 14.22C28.9667 14.1907 28.7907 14.1907 28.556 14.22C28.4093 14.3667 28.16 14.5427 27.808 14.748C27.3973 14.6893 26.8107 14.6893 26.048 14.748V14.968C25.9307 14.968 25.7547 15.012 25.52 15.1C25.4613 15.2467 25.344 15.4227 25.168 15.628C24.552 16.0387 23.408 16.244 21.736 16.244C21.472 17.0653 21.3107 17.5347 21.252 17.652C21.1053 17.652 20.9293 17.696 20.724 17.784C20.6947 17.8427 20.6507 17.96 20.592 18.136C20.416 18.1067 20.1667 18.1067 19.844 18.136C19.6093 18.2533 19.3013 18.532 18.92 18.972C18.568 19.412 18.2893 19.6907 18.084 19.808H17.952C17.9227 19.9547 17.8787 20.16 17.82 20.424C17.82 20.5707 17.864 20.7467 17.952 20.952C18.0987 20.9813 18.304 21.0107 18.568 21.04C18.6267 21.744 18.7587 22.5507 18.964 23.46C19.1107 23.4893 19.272 23.5333 19.448 23.592C19.448 23.7387 19.492 23.9 19.58 24.076C19.6093 24.1053 19.7853 24.1787 20.108 24.296C20.284 24.3547 20.372 24.472 20.372 24.648C20.372 24.7947 20.4013 24.9853 20.46 25.22C20.5773 25.22 20.7093 25.22 20.856 25.22C20.9147 25.3667 21.0467 25.5427 21.252 25.748C21.4867 25.7187 21.824 25.7627 22.264 25.88C22.3813 25.968 22.4693 26.2027 22.528 26.584C22.5867 26.936 22.66 27.156 22.748 27.244C22.9533 27.3027 23.2467 27.3907 23.628 27.508C23.804 27.772 24.0973 28.1093 24.508 28.52C24.6547 28.5493 24.8307 28.5933 25.036 28.652C25.1533 28.7693 25.2267 28.9453 25.256 29.18C25.2853 29.3853 25.344 29.5467 25.432 29.664C25.5493 29.8693 25.7693 30.0307 26.092 30.148C26.5613 30.2947 26.84 30.3827 26.928 30.412C27.016 30.5587 27.148 30.72 27.324 30.896C27.5293 31.0427 28.116 31.204 29.084 31.38C29.8467 31.5267 30.3453 31.7467 30.58 32.04C30.8147 32.3333 30.932 32.6267 30.932 32.92C30.932 33.1253 30.6533 33.7267 30.096 34.724C30.0667 34.9587 29.9347 35.208 29.7 35.472C29.436 35.472 29.0253 35.472 28.468 35.472L28.204 35.736C27.2947 35.9707 26.3267 36.0587 25.3 36C23.5987 35.8827 22.4547 35.8387 21.868 35.868C20.9293 35.9267 20.548 35.9707 20.724 36C20.372 35.824 19.8733 35.6187 19.228 35.384C18.8173 35.472 18.128 35.5013 17.16 35.472C17.0133 35.384 16.808 35.2667 16.544 35.12C16.544 34.24 16.588 33.7267 16.676 33.58C16.7933 33.5213 16.9253 33.448 17.072 33.36C17.0427 33.272 17.0427 33.14 17.072 32.964C17.16 32.8467 17.2773 32.6707 17.424 32.436C18.0107 32.4947 18.7293 32.4653 19.58 32.348C19.492 32.0253 19.3307 31.556 19.096 30.94C18.9787 30.852 18.8467 30.72 18.7 30.544C18.7 30.3093 18.656 29.928 18.568 29.4C18.392 29.1947 18.1867 28.9013 17.952 28.52C17.9227 28.1973 17.8347 27.7427 17.688 27.156C17.424 26.9507 17.0867 26.6427 16.676 26.232C16.676 26.1147 16.676 25.9533 16.676 25.748L16.412 25.616C16.324 25.352 16.1187 25.0587 15.796 24.736C15.6493 24.7653 15.4733 24.7653 15.268 24.736C15.2093 24.648 15.092 24.516 14.916 24.34C14.8867 24.4867 14.8427 24.6627 14.784 24.868C14.608 25.0147 14.3587 25.1173 14.036 25.176C13.596 25.2347 13.288 25.2933 13.112 25.352C13.0827 25.4693 13.0093 25.6013 12.892 25.748C12.628 25.836 12.2467 25.9973 11.748 26.232C11.2787 26.4667 10.7653 26.804 10.208 27.244C10.12 27.5667 10.1053 27.9333 10.164 28.344C10.2227 28.6667 10.2813 28.9747 10.34 29.268C10.4867 29.268 10.6627 29.312 10.868 29.4C10.8387 29.5173 10.8387 29.6493 10.868 29.796C10.7213 30.148 10.5893 30.3533 10.472 30.412C10.56 30.6467 10.604 30.7787 10.604 30.808C10.4867 30.9253 10.3547 31.0573 10.208 31.204C10.208 31.1453 10.252 31.556 10.34 32.436C10.6333 32.4653 11.0587 32.436 11.616 32.348C11.616 32.172 11.8653 31.996 12.364 31.82C12.452 31.82 12.7453 31.9227 13.244 32.128C13.772 32.304 14.0653 32.4067 14.124 32.436C14.1533 32.5533 14.1973 32.6853 14.256 32.832C14.3733 32.832 14.5493 32.876 14.784 32.964C14.9307 33.1987 15.136 33.448 15.4 33.712H15.664C15.6347 33.8587 15.6347 34.0787 15.664 34.372C15.488 34.3427 15.2387 34.3427 14.916 34.372C14.74 34.5187 14.52 34.68 14.256 34.856C14.08 34.8853 13.7867 34.9293 13.376 34.988L13.112 35.252C12.408 35.4573 11.528 35.4133 10.472 35.12L10.076 34.856C9.812 34.8267 9.47467 34.8707 9.064 34.988C8.82933 35.076 8.58 35.164 8.316 35.252C7.964 35.34 7.28933 35.384 6.292 35.384C5.79333 35.2667 5.456 35.2227 5.28 35.252C5.192 35.252 4.86933 35.296 4.312 35.384C3.784 35.4427 3.37333 35.472 3.08 35.472C2.25867 35.472 1.73067 35.2667 1.496 34.856C1.496 34.7387 1.496 34.5773 1.496 34.372C1.37867 34.196 1.26133 34.0347 1.144 33.888C0.968 33.5653 0.909333 33.3893 0.968 33.36C1.08533 33.1253 1.30533 32.8173 1.628 32.436C1.77467 32.348 2.21467 32.2013 2.948 31.996C3.71067 31.7907 4.19467 31.688 4.4 31.688C4.60533 31.7467 4.89867 31.8347 5.28 31.952V32.216C5.28 32.216 5.66133 32.216 6.424 32.216C6.16 31.7467 6.028 31.4827 6.028 31.424V31.336C6.32133 31.1893 6.48267 30.3533 6.512 28.828C6.54133 27.068 6.6 26.1 6.688 25.924C6.776 25.7187 6.84933 25.528 6.908 25.352C6.84933 25.2933 6.71733 24.9267 6.512 24.252C6.30667 23.5773 6.18933 23.152 6.16 22.976C6.13067 22.712 6.17467 22.4333 6.292 22.14C6.38 21.964 6.468 21.7733 6.556 21.568C6.52667 21.392 6.52667 21.1427 6.556 20.82C6.468 20.556 6.424 20.336 6.424 20.16C6.54133 19.7493 6.58533 19.456 6.556 19.28C6.43867 19.1333 6.30667 18.928 6.16 18.664C6.13067 18.4293 6.16 18.1507 6.248 17.828C6.36533 17.388 6.424 17.1533 6.424 17.124C6.45333 16.772 6.40933 16.376 6.292 15.936C6.204 15.4667 6.16 15.144 6.16 14.968C6.16 14.4693 6.27733 13.692 6.512 12.636C6.776 11.5507 6.908 10.7147 6.908 10.128C6.908 9.776 6.864 9.45333 6.776 9.16C6.688 8.984 6.57067 8.77866 6.424 8.544C6.424 8.30933 6.424 8.00133 6.424 7.62C6.30667 7.47333 6.17467 7.268 6.028 7.004C6.05733 7.23867 6.10133 6.76933 6.16 5.596C5.544 5.508 5.00133 5.464 4.532 5.464L4.4 5.112C4.01867 5.14133 3.46133 5.14133 2.728 5.112C1.936 5.024 1.21733 4.51066 0.572 3.572C0.366667 3.16133 0.366667 2.956 0.572 2.956C0.689333 2.22267 0.806667 1.78267 0.924 1.636C1.07067 1.46 1.46667 1.26933 2.112 1.064C2.288 0.975998 2.49333 0.887998 2.728 0.799999ZM41.3081 0.799999C41.3374 0.799999 41.6161 0.843999 42.1441 0.931998C42.6721 0.990665 42.9508 1.03467 42.9801 1.064C43.0681 1.26933 43.2001 1.56266 43.3761 1.944C43.4641 1.97333 43.5961 2.01733 43.7721 2.076C43.8014 2.10533 43.6694 2.19333 43.3761 2.34C43.3761 2.78 43.3761 3 43.3761 3C43.5228 3.02933 43.7428 3.07333 44.0361 3.132C44.0948 3.308 44.1388 3.572 44.1681 3.924H43.9041C43.8161 4.15867 43.7281 4.628 43.6401 5.332C43.6401 5.332 43.5521 5.376 43.3761 5.464C42.9654 5.17066 42.6721 4.73066 42.4961 4.144C42.0561 4.144 41.8361 4.144 41.8361 4.144C41.7481 4.43733 41.6601 4.92133 41.5721 5.596C41.5721 5.86 41.5721 5.992 41.5721 5.992C41.5428 6.02133 40.9414 6.10933 39.7681 6.256C39.6801 6.344 39.5921 6.46133 39.5041 6.608C39.5334 6.872 39.5334 7.224 39.5041 7.664C39.4454 7.78133 39.2988 7.884 39.0641 7.972C38.8294 8.06 38.6681 8.13333 38.5801 8.192V8.456C38.4334 8.57333 38.2721 8.77866 38.0961 9.072C38.1254 9.27733 38.1254 9.54133 38.0961 9.864C37.8028 10.0107 37.4508 10.2747 37.0401 10.656C36.9814 10.744 36.8054 11.3013 36.5121 12.328C36.6588 12.3573 36.9668 12.4013 37.4361 12.46C37.4654 12.9 37.5534 13.4573 37.7001 14.132C37.9934 13.868 38.4188 13.516 38.9761 13.076C39.0934 13.1053 39.2254 13.1053 39.3721 13.076C39.7241 12.8413 40.1494 12.548 40.6481 12.196C40.8241 12.196 41.0881 12.152 41.4401 12.064C41.5868 11.9467 41.7628 11.8147 41.9681 11.668C42.1441 11.6387 42.4521 11.6533 42.8921 11.712C43.1268 11.7413 43.3761 11.7707 43.6401 11.8C43.8161 11.7413 44.1681 11.6973 44.6961 11.668C44.9014 11.7853 45.1508 11.9173 45.4441 12.064C45.9134 12.0053 46.5588 12.0053 47.3801 12.064C47.5268 12.0933 47.6588 12.2253 47.7761 12.46C47.9228 12.6947 48.0108 12.8267 48.0401 12.856C48.4214 12.8853 48.9788 12.9587 49.7121 13.076C49.8881 13.252 50.1081 13.428 50.3721 13.604C50.7534 13.5747 51.2668 13.6187 51.9121 13.736C52.0294 13.7947 52.0881 13.8973 52.0881 14.044C52.1174 14.1907 52.1614 14.3227 52.2201 14.44C52.2788 14.528 52.4548 14.6307 52.7481 14.748C53.0708 14.836 53.2761 14.9387 53.3641 15.056C53.3641 15.32 53.4521 15.7013 53.6281 16.2C53.7748 16.2293 53.9801 16.3173 54.2441 16.464C54.2734 16.64 54.3614 16.904 54.5081 17.256C54.7428 17.344 55.0068 17.4613 55.3001 17.608C55.0361 18.488 54.9921 19.1773 55.1681 19.676C55.3148 19.8227 55.4908 19.9987 55.6961 20.204C55.7548 20.4387 55.7548 20.9227 55.6961 21.656C55.7841 21.6853 55.7841 21.7147 55.6961 21.744C55.6374 21.744 55.6814 21.744 55.8281 21.744C55.6814 22.3307 55.5494 22.9467 55.4321 23.592C55.4321 23.6507 55.4761 23.768 55.5641 23.944C55.6521 24.12 55.6961 24.208 55.6961 24.208C55.6374 24.472 55.5934 24.912 55.5641 25.528C55.5641 25.9093 55.6081 26.3787 55.6961 26.936C55.6961 26.9653 56.2534 27.3173 57.3681 27.992C57.1334 28.2267 56.7374 28.564 56.1801 29.004C56.4734 29.532 56.6054 30.0893 56.5761 30.676C56.1361 30.9107 55.7548 31.1747 55.4321 31.468C55.2561 31.7027 55.0361 31.9667 54.7721 32.26C54.6254 32.26 54.4494 32.304 54.2441 32.392C54.2734 32.48 54.2734 32.5973 54.2441 32.744C54.2148 32.832 54.0534 33.0227 53.7601 33.316C53.4961 33.6093 53.3201 33.7707 53.2321 33.8C52.9974 33.8 52.6454 33.844 52.1761 33.932C52.0588 34.0493 51.8828 34.1813 51.6481 34.328C51.5308 34.2987 51.3694 34.2987 51.1641 34.328C50.7534 34.504 50.1814 34.7093 49.4481 34.944C49.0668 34.944 48.4654 34.988 47.6441 35.076C47.2921 35.252 46.7788 35.428 46.1041 35.604C45.7521 35.5453 45.1948 35.5013 44.4321 35.472C44.3441 35.5013 43.9774 35.604 43.3321 35.78C42.8041 35.956 42.3934 36.0293 42.1001 36C41.8948 36 41.3814 35.8533 40.5601 35.56C39.7681 35.2667 39.2988 35.0613 39.1521 34.944C39.0348 34.7973 38.8441 34.592 38.5801 34.328C38.2868 34.2107 37.8174 33.9907 37.1721 33.668C36.9961 33.5507 36.5268 33.0813 35.7641 32.26C35.7641 32.1427 35.7641 32.0107 35.7641 31.864C35.6468 31.864 35.5148 31.82 35.3681 31.732C35.3681 31.5853 35.3241 31.4093 35.2361 31.204H34.9721C35.0014 31.0867 35.0014 30.9547 34.9721 30.808C34.7668 30.72 34.5028 30.5147 34.1801 30.192C34.1801 29.928 34.1361 29.532 34.0481 29.004C33.9308 28.916 33.8134 28.784 33.6961 28.608C33.7254 28.4613 33.7254 28.256 33.6961 27.992C33.4614 27.7573 33.1974 27.4053 32.9041 26.936C32.9041 26.8187 32.9041 26.6427 32.9041 26.408C32.7868 26.232 32.6548 25.9827 32.5081 25.66C32.3321 24.956 32.2001 24.2227 32.1121 23.46C32.0241 22.5507 32.0681 21.7733 32.2441 21.128C32.3614 20.9813 32.4934 20.8053 32.6401 20.6C32.7574 19.984 32.7574 19.4267 32.6401 18.928C32.5228 18.7813 32.3908 18.6053 32.2441 18.4C32.1854 17.9307 32.2294 17.3733 32.3761 16.728C32.4934 16.5813 32.6254 16.4053 32.7721 16.2C32.6841 16.0533 32.6401 15.7453 32.6401 15.276C32.8161 15.1587 32.9921 14.9973 33.1681 14.792C33.0801 14.528 33.0361 14.132 33.0361 13.604L33.6961 13.076C33.6668 13.076 33.6228 12.8267 33.5641 12.328C33.7108 12.24 33.7108 12.196 33.5641 12.196C33.7401 10.9347 33.7841 10.1133 33.6961 9.732C33.8721 9.58533 34.1214 9.36533 34.4441 9.072C34.1801 8.192 34.0481 7.72267 34.0481 7.664H34.1801C34.5028 7.19467 34.8548 6.68133 35.2361 6.124C35.2948 5.97733 35.3241 5.62533 35.3241 5.068C35.3534 4.68667 35.4561 4.42267 35.6321 4.276C35.7201 4.30533 35.8521 4.30533 36.0281 4.276L36.2481 4.056C36.7174 3.968 37.1574 3.89467 37.5681 3.836C38.0081 3.77733 38.3014 3.58667 38.4481 3.264C38.4481 3.02933 38.4921 2.67733 38.5801 2.208C38.6974 2.06133 38.9468 1.87066 39.3281 1.636C39.7388 1.372 40.0614 1.22533 40.2961 1.196C40.4134 1.196 40.5748 1.196 40.7801 1.196C40.8974 1.07867 41.0734 0.946666 41.3081 0.799999ZM45.9721 0.931998C46.0601 0.961331 46.1334 1.03466 46.1921 1.152C46.1628 1.21067 46.1334 1.26933 46.1041 1.328C45.9574 1.152 45.9134 1.02 45.9721 0.931998ZM45.0481 1.592C45.4294 1.91466 45.6201 2.12 45.6201 2.208C45.6201 2.208 45.4294 2.472 45.0481 3C44.9014 2.88267 44.7401 2.70667 44.5641 2.472C44.5934 2.17867 44.6374 2.09067 44.6961 2.208C44.6961 1.97333 44.6961 1.856 44.6961 1.856C44.7841 1.79733 44.9014 1.70933 45.0481 1.592ZM54.9041 15.672C54.7574 16.2587 54.7134 16.3907 54.7721 16.068C54.7428 16.0093 54.7134 15.9507 54.6841 15.892C54.6841 15.7453 54.7574 15.672 54.9041 15.672ZM44.5641 15.804C44.3588 15.8333 44.0361 15.9653 43.5961 16.2C43.1561 16.4053 42.9068 16.5813 42.8481 16.728C42.8774 16.8747 42.8774 17.0507 42.8481 17.256C42.6428 17.2267 42.3054 17.256 41.8361 17.344C41.7481 17.52 41.6161 17.696 41.4401 17.872C41.4401 17.872 41.3081 17.784 41.0441 17.608C40.9268 17.608 40.7801 17.652 40.6041 17.74C40.4574 17.828 40.3548 17.872 40.2961 17.872C40.2961 18.0773 40.2961 18.3413 40.2961 18.664C40.2081 18.6933 40.1201 18.7813 40.0321 18.928C38.7414 18.8693 37.9641 18.9573 37.7001 19.192C37.5241 19.3093 37.4361 19.5 37.4361 19.764C37.4654 20.1747 37.4654 20.4093 37.4361 20.468L37.1721 20.6C36.7614 21.6853 36.6294 22.5507 36.7761 23.196C36.7761 23.3133 36.8201 23.4893 36.9081 23.724C37.0254 23.724 37.2014 23.768 37.4361 23.856C37.2308 24.2667 37.0988 24.912 37.0401 25.792C37.8028 26.0267 38.5361 26.1147 39.2401 26.056C39.2401 26.056 39.2841 26.1733 39.3721 26.408C39.3428 26.4667 39.2988 26.5107 39.2401 26.54C39.2108 26.6867 39.2108 26.8627 39.2401 27.068C39.4454 27.0973 39.7094 27.2293 40.0321 27.464C40.0321 27.6107 40.0761 27.8307 40.1641 28.124C40.0761 28.124 39.9001 28.168 39.6361 28.256C39.6361 28.4027 39.5921 28.608 39.5041 28.872C39.7974 28.872 40.2668 28.916 40.9121 29.004C41.0881 29.0627 41.3668 29.3267 41.7481 29.796C42.1881 30.3533 42.4374 30.6467 42.4961 30.676C42.4961 30.676 42.4961 30.5147 42.4961 30.192C42.4374 30.1627 42.3348 30.1627 42.1881 30.192C42.0708 30.192 42.0121 30.1773 42.0121 30.148C41.9828 30.148 42.0561 30.1187 42.2321 30.06C42.7601 29.8547 43.1854 29.752 43.5081 29.752C44.3001 29.752 44.7841 30.412 44.9601 31.732H47.0281C47.0868 31.556 47.2041 31.248 47.3801 30.808C47.4974 30.7493 47.6294 30.7347 47.7761 30.764C47.9521 30.7933 48.0401 30.808 48.0401 30.808C48.2161 30.7787 48.5974 30.6467 49.1841 30.412C49.7708 30.1773 50.0788 30.016 50.1081 29.928C50.2254 29.7227 50.2841 29.356 50.2841 28.828C50.2841 28.2707 50.2988 27.9187 50.3281 27.772C50.3868 27.6253 50.5188 27.4493 50.7241 27.244C50.9294 27.0093 51.0321 26.8187 51.0321 26.672V26.54H51.2961C51.3254 26.3053 51.2668 26.0707 51.1201 25.836C50.9734 25.572 50.9001 25.4253 50.9001 25.396C50.8708 25.1907 50.9148 24.9707 51.0321 24.736C51.1201 24.6187 51.2081 24.4867 51.2961 24.34C51.4721 23.6653 51.5161 23.064 51.4281 22.536C51.2228 22.272 50.9588 21.8907 50.6361 21.392C50.6361 21.2453 50.6361 21.0693 50.6361 20.864C50.5188 20.4533 50.2108 19.852 49.7121 19.06C49.4188 18.5907 49.2134 18.3267 49.0961 18.268H48.8321C48.8321 18.1507 48.8321 18.0187 48.8321 17.872C48.5681 17.6667 48.2161 17.3293 47.7761 16.86C47.7761 16.7133 47.7321 16.5373 47.6441 16.332C47.5268 16.2733 47.0281 16.1707 46.1481 16.024C45.2974 15.848 44.7694 15.7747 44.5641 15.804ZM69.6248 0.799999V1.064C69.8008 1.12266 70.0062 1.196 70.2408 1.284C70.4755 1.34266 70.7395 1.372 71.0328 1.372C71.2968 1.372 71.6635 1.34266 72.1328 1.284C72.6315 1.22533 72.9982 1.196 73.2328 1.196C73.5262 1.196 73.7902 1.22533 74.0248 1.284C74.2595 1.46 74.5822 1.66533 74.9928 1.9C75.0808 1.9 75.2128 1.9 75.3888 1.9C75.5062 2.04666 75.6675 2.208 75.8728 2.384C76.0488 2.44267 76.2542 2.39867 76.4888 2.252C76.7235 2.076 76.9582 2.00266 77.1928 2.032L77.3248 2.252C77.5888 2.252 77.9555 2.296 78.4248 2.384C78.5128 2.53066 78.6448 2.692 78.8208 2.868C78.9382 2.80933 79.1435 2.78 79.4368 2.78C79.4368 2.83867 79.5102 2.912 79.6568 3V3.264C79.1875 3.528 78.9088 3.71867 78.8208 3.836C78.7622 3.95333 78.7622 4.29066 78.8208 4.848C78.9675 4.78933 79.2022 4.74533 79.5248 4.716C79.5542 4.77466 79.6422 4.86266 79.7888 4.98V6.212C80.5808 6.27067 81.0355 6.27067 81.1528 6.212C81.1822 6.06533 81.2555 5.88933 81.3728 5.684C81.6368 5.80133 82.0035 6.00666 82.4728 6.3C82.5022 6.41733 82.5462 6.54933 82.6048 6.696C82.7222 6.696 82.8395 6.74 82.9568 6.828C82.9568 6.828 82.9568 7.224 82.9568 8.016C82.9275 8.04533 82.8982 8.17733 82.8688 8.412C82.3408 8.324 81.9742 8.28 81.7688 8.28C81.6808 8.33867 81.5928 8.42667 81.5048 8.544C81.5928 8.74933 81.6368 9.028 81.6368 9.38C81.4608 9.468 81.2555 9.58533 81.0208 9.732C80.9915 9.79067 81.0355 9.83467 81.1528 9.864C80.6835 10.6853 80.4782 11.3453 80.5368 11.844C80.7422 12.2547 80.9768 12.8267 81.2408 13.56C81.2408 13.56 81.2408 13.9707 81.2408 14.792C81.0648 14.88 80.5808 14.9973 79.7888 15.144C79.7888 15.5253 79.7008 16.024 79.5248 16.64C79.2608 16.7867 78.9822 16.948 78.6888 17.124C78.6888 17.3293 78.6008 17.608 78.4248 17.96C78.3075 18.048 78.1315 18.092 77.8968 18.092H77.8528C77.6182 18.092 77.4422 18.136 77.3248 18.224C77.2662 18.5467 77.0608 18.9573 76.7088 19.456C76.5035 19.5147 76.1808 19.632 75.7408 19.808C75.6235 19.984 75.3742 20.1893 74.9928 20.424C74.7582 20.424 74.3915 20.468 73.8928 20.556V20.776C73.7462 20.864 73.4968 20.996 73.1448 21.172V21.392C73.1155 21.4507 73.0422 21.48 72.9248 21.48C72.8075 21.48 72.7195 21.4947 72.6608 21.524C72.5728 21.7 72.4115 21.9053 72.1768 22.14C71.7955 22.1693 71.2675 22.2867 70.5928 22.492C70.5048 22.6973 70.3435 22.9467 70.1088 23.24C69.9622 23.328 69.7275 23.372 69.4048 23.372C69.0822 23.372 68.8622 23.416 68.7448 23.504C68.7155 23.7387 68.6422 24.0173 68.5248 24.34C68.4075 24.34 68.2755 24.34 68.1288 24.34C68.0115 24.4573 67.8502 24.5893 67.6448 24.736C67.4395 24.736 67.1168 24.8093 66.6768 24.956C66.5595 25.1613 66.3542 25.4547 66.0608 25.836C65.9435 25.836 65.7822 25.8653 65.5768 25.924V26.188C65.3422 26.364 65.0048 26.5693 64.5648 26.804C64.4768 26.804 64.3595 26.804 64.2128 26.804C64.2128 26.9213 64.1688 27.0827 64.0808 27.288C63.7875 27.4933 63.4648 27.7427 63.1128 28.036C63.1128 28.036 63.1128 28.2413 63.1128 28.652C63.2888 28.74 63.3622 28.8133 63.3328 28.872H63.1128C63.1128 28.872 63.1128 29.004 63.1128 29.268C63.0835 29.3267 62.8342 29.488 62.3648 29.752C62.3942 29.8693 62.3942 29.9867 62.3648 30.104H62.1448C62.1448 30.3093 62.1448 30.6027 62.1448 30.984C62.1448 31.0427 62.1742 31.116 62.2328 31.204C62.4675 31.4093 63.2155 31.5707 64.4768 31.688V31.336C64.5942 31.336 64.7115 31.3947 64.8288 31.512C64.9755 31.6293 65.0635 31.7027 65.0928 31.732C65.1515 31.732 65.5035 31.7613 66.1488 31.82C66.8235 31.8493 67.2048 31.8493 67.2928 31.82C67.4102 31.644 67.5715 31.4387 67.7768 31.204C67.8355 31.1747 68.2462 31.0133 69.0088 30.72V30.588C69.2435 30.588 69.5368 30.7347 69.8888 31.028C70.2408 31.3213 70.5195 31.468 70.7248 31.468C70.7542 31.468 70.8568 31.4093 71.0328 31.292C71.2088 31.1747 71.3115 31.1013 71.3408 31.072C71.6048 31.16 72.0448 31.204 72.6608 31.204C72.8368 31.116 73.1302 30.9547 73.5408 30.72C73.7462 30.6907 73.9808 30.72 74.2448 30.808C74.4208 30.8667 74.5968 30.9253 74.7728 30.984C75.0955 31.0133 75.5502 30.984 76.1368 30.896C76.8408 30.7787 77.2368 30.72 77.3248 30.72C77.9408 30.6907 78.3515 30.7347 78.5568 30.852C78.6155 30.9693 78.7035 31.0867 78.8208 31.204C79.1435 31.292 79.6568 31.336 80.3608 31.336C81.0942 31.3067 81.6368 31.336 81.9888 31.424C82.1648 31.4533 82.4875 31.5853 82.9568 31.82C82.9862 31.996 82.9862 32.2893 82.9568 32.7C82.2235 32.612 81.5782 32.656 81.0208 32.832C80.9035 32.8027 80.7422 32.8027 80.5368 32.832C80.4488 32.92 80.3168 33.0373 80.1408 33.184C80.1408 33.4187 80.1408 33.536 80.1408 33.536C80.0235 33.624 79.9062 33.712 79.7888 33.8C79.8182 33.9173 79.8182 34.0787 79.7888 34.284C79.4368 34.8413 78.9822 35.164 78.4248 35.252C78.2488 35.2227 78.0142 35.2227 77.7208 35.252C77.5155 35.4867 77.2222 35.736 76.8408 36C76.1955 36.1467 75.6235 36.0587 75.1248 35.736L74.9928 35.516C74.7875 35.5453 74.4648 35.5893 74.0248 35.648C73.8488 35.6187 73.6435 35.5747 73.4088 35.516C73.1742 35.428 72.9688 35.384 72.7928 35.384C72.6462 35.384 72.3088 35.4427 71.7808 35.56C71.2822 35.6773 70.8422 35.7067 70.4608 35.648C70.4608 35.648 70.3875 35.604 70.2408 35.516C70.0942 35.428 70.0062 35.384 69.9768 35.384C69.9475 35.384 69.8008 35.4427 69.5368 35.56C69.2728 35.648 69.0528 35.6773 68.8768 35.648C68.7008 35.5307 68.4955 35.3987 68.2608 35.252C68.0555 35.2813 67.7622 35.2813 67.3808 35.252C67.2048 35.076 66.9702 34.8707 66.6768 34.636C66.2662 34.548 65.6648 34.548 64.8728 34.636C63.8462 34.724 63.3035 34.768 63.2448 34.768C62.5995 34.768 61.8955 34.6947 61.1328 34.548C60.9862 34.4307 60.7808 34.2987 60.5168 34.152C60.2822 34.1813 59.9595 34.1813 59.5488 34.152L59.4168 33.932C59.1822 33.756 58.9768 33.3893 58.8008 32.832C58.5662 32.0107 58.4488 31.6293 58.4488 31.688L58.7128 31.468C58.7422 30.6467 58.9475 29.5467 59.3288 28.168C59.5048 28.0507 59.6955 27.8747 59.9008 27.64C59.9008 27.4933 59.9008 27.2587 59.9008 26.936C60.0475 26.672 60.2235 26.3787 60.4288 26.056C60.5168 26.0267 60.6782 25.9533 60.9128 25.836V25.572C60.9128 25.572 61.1915 25.4107 61.7488 25.088V24.824C61.8662 24.824 62.0275 24.7947 62.2328 24.736C62.3208 24.5307 62.4968 24.2373 62.7608 23.856C62.9955 23.7387 63.2742 23.5773 63.5968 23.372C63.5968 23.2253 63.6408 23.02 63.7288 22.756C64.1982 22.4333 64.7702 22.0227 65.4448 21.524C65.8262 21.2013 66.0315 20.996 66.0608 20.908C66.0608 20.556 66.0608 20.4387 66.0608 20.556C66.3248 20.556 66.6915 20.512 67.1608 20.424C67.3368 20.16 67.5862 19.8667 67.9088 19.544C68.1142 19.5733 68.3928 19.5733 68.7448 19.544C68.9502 19.3973 69.2435 19.2067 69.6248 18.972C69.5955 18.9133 69.5515 18.7813 69.4928 18.576C69.5515 18.5467 69.6248 18.5027 69.7128 18.444C69.7128 18.444 69.6835 18.3267 69.6248 18.092C69.8008 18.0627 70.1235 17.9747 70.5928 17.828C70.6808 17.7107 70.7982 17.5933 70.9448 17.476C71.0622 17.5347 71.2675 17.5787 71.5608 17.608C71.7075 17.432 71.9128 17.2267 72.1768 16.992C72.2942 16.992 72.4262 16.992 72.5728 16.992C72.5728 16.816 72.6022 16.6107 72.6608 16.376C72.7488 16.288 72.9542 16.2147 73.2768 16.156C73.6288 16.0973 73.8342 16.0387 73.8928 15.98C73.9515 15.892 74.0835 15.7747 74.2888 15.628C74.2595 15.3933 74.2595 15.0707 74.2888 14.66C74.5235 14.484 74.7582 14.2787 74.9928 14.044C75.0808 13.8973 75.2128 13.4867 75.3888 12.812C75.2715 12.5773 75.2275 12.1667 75.2568 11.58C75.3155 11.4333 75.4475 11.3307 75.6528 11.272C75.8875 11.2133 76.1222 11.1547 76.3568 11.096V10.876C76.2102 10.6413 76.0488 10.348 75.8728 9.996C76.0782 9.908 76.0782 9.65866 75.8728 9.248C75.6088 9.072 75.3155 8.83733 74.9928 8.544C74.9342 8.39733 74.8902 8.16267 74.8608 7.84C74.8608 7.63467 74.7288 7.47333 74.4648 7.356C74.2302 7.23867 73.8342 7.06267 73.2768 6.828C72.9248 6.59333 72.7195 6.388 72.6608 6.212C72.6902 6.09466 72.6902 5.96266 72.6608 5.816C72.4848 5.69866 72.1328 5.64 71.6048 5.64H71.4288C71.0768 5.64 70.7982 5.62533 70.5928 5.596C70.5048 5.56667 70.2555 5.44933 69.8448 5.244C69.4635 5.00933 69.1408 4.892 68.8768 4.892C68.7595 4.892 68.6422 4.92133 68.5248 4.98L67.9968 5.596C67.6155 5.596 67.0142 5.66933 66.1928 5.816C66.1048 5.93333 66.0168 6.06533 65.9288 6.212C65.8408 6.18267 65.7235 6.18267 65.5768 6.212V6.3C65.3715 6.564 65.1222 6.85733 64.8288 7.18C64.6528 7.18 64.4182 7.23867 64.1248 7.356C63.8608 7.47333 63.5235 7.664 63.1128 7.928V8.148C63.0835 8.03067 63.0395 8.07467 62.9808 8.28C63.0395 8.77866 63.1568 9.30667 63.3328 9.864C63.3328 9.952 63.3035 10.04 63.2448 10.128C63.1275 10.0987 62.9662 10.0987 62.7608 10.128C62.1742 10.2747 61.7928 10.524 61.6168 10.876C61.6462 10.9933 61.6462 11.1547 61.6168 11.36C61.4995 12.0053 61.3528 12.4013 61.1768 12.548C61.0008 12.6653 60.5462 12.7533 59.8128 12.812C59.6662 12.636 59.5048 12.3573 59.3288 11.976C59.2995 11.8 59.3288 11.536 59.4168 11.184C59.5048 10.832 59.5488 10.6413 59.5488 10.612C59.4902 10.2893 59.4462 9.92267 59.4168 9.512L59.6808 9.38C59.8568 9.028 60.1062 8.5 60.4288 7.796C60.4288 7.62 60.4288 7.42933 60.4288 7.224C60.4582 6.98933 60.5608 6.872 60.7368 6.872C60.7955 6.872 60.8542 6.85733 60.9128 6.828V6.564C61.0008 6.50533 61.1182 6.41733 61.2648 6.3C61.2942 6.124 61.3822 5.84533 61.5288 5.464C61.5875 5.43467 61.6608 5.39066 61.7488 5.332C61.7782 4.98 61.9102 4.496 62.1448 3.88H62.3648C62.4528 3.73333 62.5848 3.572 62.7608 3.396C63.0542 3.308 63.4942 3.132 64.0808 2.868C64.4328 2.57467 64.9608 2.208 65.6648 1.768C65.8115 1.73866 65.9728 1.724 66.1488 1.724H66.2368C66.3835 1.724 66.5448 1.69467 66.7208 1.636C66.8968 1.548 67.1168 1.43067 67.3808 1.284C67.5568 1.31333 67.8062 1.31333 68.1288 1.284L68.3928 1.064C68.5982 1.064 68.8768 1.064 69.2288 1.064C69.2582 1.064 69.3168 1.02 69.4048 0.931998C69.4928 0.843999 69.5662 0.799999 69.6248 0.799999ZM82.8688 8.896C83.1035 9.27733 83.2208 9.49733 83.2208 9.556C83.2208 9.70267 83.1035 9.80533 82.8688 9.864C82.7808 9.89333 82.7222 9.908 82.6928 9.908C82.5755 9.908 82.5168 9.908 82.5168 9.908C82.4875 9.87866 82.5608 9.82 82.7368 9.732C82.3555 9.43867 82.1648 9.292 82.1648 9.292C82.1648 9.23333 82.3995 9.10133 82.8688 8.896ZM82.8688 10.128C83.0742 10.3333 83.0742 10.4067 82.8688 10.348C82.7808 10.26 82.7808 10.1867 82.8688 10.128ZM81.0208 10.348C81.5488 10.612 81.9595 10.8613 82.2528 11.096C81.8715 11.0667 81.4168 10.8613 80.8888 10.48C80.9182 10.48 80.9328 10.4653 80.9328 10.436C80.9035 10.3773 80.8888 10.348 80.8888 10.348C80.8888 10.348 80.9328 10.348 81.0208 10.348Z" fill="#D00000" fill-opacity="0.81"/>
</svg>
