<svg width="93" height="37" viewBox="0 0 93 37" fill="none" xmlns="http://www.w3.org/2000/svg">
<path d="M2.728 0.799999C3.54933 0.741332 4.82533 0.917331 6.556 1.328C6.61467 1.65067 6.65867 1.84133 6.688 1.9C6.776 2.04666 6.93733 2.14933 7.172 2.208C7.612 2.12 8.24267 2.164 9.064 2.34C9.35733 2.48666 9.60667 2.868 9.812 3.484C10.1053 4.276 10.296 4.716 10.384 4.804C10.472 4.892 10.5893 4.99467 10.736 5.112C10.7067 5.22933 10.7067 5.39067 10.736 5.596C10.8533 5.62533 11.0587 5.71333 11.352 5.86C11.1173 5.948 10.956 5.992 10.868 5.992L10.736 6.388C10.7653 6.388 10.8093 6.46133 10.868 6.608C11.0147 6.608 11.3813 6.696 11.968 6.872C11.9973 7.312 11.9973 7.532 11.968 7.532C11.7627 7.56133 11.7333 8.06 11.88 9.028C11.4693 9.26267 11.044 9.512 10.604 9.776C10.6333 9.98133 10.6333 10.2747 10.604 10.656C10.604 10.6853 10.56 10.7587 10.472 10.876C10.384 10.964 10.34 11.0227 10.34 11.052L10.604 11.316C10.6627 11.5213 10.7507 11.8147 10.868 12.196C11.1907 12.196 11.352 12.196 11.352 12.196C11.3813 12.284 11.4693 12.416 11.616 12.592C11.4107 13.1493 11.3227 13.5307 11.352 13.736C11.4987 13.9707 11.6747 14.308 11.88 14.748C11.9093 14.9827 11.9827 15.8627 12.1 17.388C12.1293 17.3587 12.2467 17.344 12.452 17.344C12.54 17.344 12.5987 17.3147 12.628 17.256C12.5987 17.1387 12.5987 16.9773 12.628 16.772C12.7453 16.7133 12.9067 16.6253 13.112 16.508C13.2293 16.244 13.4933 15.9507 13.904 15.628C13.8747 15.628 14.168 15.672 14.784 15.76C15.3413 15.8187 15.928 15.6427 16.544 15.232C16.6027 15.056 16.6027 14.7627 16.544 14.352C16.4267 14.088 16.2507 13.956 16.016 13.956C15.8987 13.956 15.7227 14 15.488 14.088C15.2533 14.176 15.1067 14.22 15.048 14.22C14.9893 14.22 14.8867 14.2053 14.74 14.176C14.6227 14.1173 14.5053 14.088 14.388 14.088C14.388 13.8533 14.388 13.736 14.388 13.736L14.124 13.472C14.124 13.3547 14.212 12.9733 14.388 12.328C14.5933 11.6827 14.7253 11.3453 14.784 11.316C14.872 11.316 14.9893 11.316 15.136 11.316C15.4293 11.1987 15.8107 11.0667 16.28 10.92C16.5147 10.9787 16.7787 11.0227 17.072 11.052L17.16 10.788C17.5707 10.7587 18.216 10.6853 19.096 10.568C19.4187 10.392 19.8293 10.216 20.328 10.04C20.6213 10.0693 21.0467 10.0693 21.604 10.04C21.6333 10.04 21.78 9.98133 22.044 9.864C22.3373 9.71733 22.528 9.644 22.616 9.644C22.6747 9.67333 22.836 9.74666 23.1 9.864C23.364 9.98133 23.54 10.04 23.628 10.04C23.8627 9.92266 24.112 9.79066 24.376 9.644C25.08 9.52666 25.7253 9.52666 26.312 9.644C26.4293 9.79066 26.5907 9.92266 26.796 10.04C26.972 9.98133 27.192 9.93733 27.456 9.908C27.8373 9.79067 28.0867 9.74667 28.204 9.776C28.556 9.864 28.9667 10.26 29.436 10.964C29.9053 11.6387 30.14 12.2693 30.14 12.856C30.14 12.9733 30.1253 13.0907 30.096 13.208C30.0667 13.3253 29.92 13.516 29.656 13.78C29.392 14.044 29.2013 14.1907 29.084 14.22C28.9667 14.1907 28.7907 14.1907 28.556 14.22C28.4093 14.3667 28.16 14.5427 27.808 14.748C27.3973 14.6893 26.8107 14.6893 26.048 14.748V14.968C25.9307 14.968 25.7547 15.012 25.52 15.1C25.4613 15.2467 25.344 15.4227 25.168 15.628C24.552 16.0387 23.408 16.244 21.736 16.244C21.472 17.0653 21.3107 17.5347 21.252 17.652C21.1053 17.652 20.9293 17.696 20.724 17.784C20.6947 17.8427 20.6507 17.96 20.592 18.136C20.416 18.1067 20.1667 18.1067 19.844 18.136C19.6093 18.2533 19.3013 18.532 18.92 18.972C18.568 19.412 18.2893 19.6907 18.084 19.808H17.952C17.9227 19.9547 17.8787 20.16 17.82 20.424C17.82 20.5707 17.864 20.7467 17.952 20.952C18.0987 20.9813 18.304 21.0107 18.568 21.04C18.6267 21.744 18.7587 22.5507 18.964 23.46C19.1107 23.4893 19.272 23.5333 19.448 23.592C19.448 23.7387 19.492 23.9 19.58 24.076C19.6093 24.1053 19.7853 24.1787 20.108 24.296C20.284 24.3547 20.372 24.472 20.372 24.648C20.372 24.7947 20.4013 24.9853 20.46 25.22C20.5773 25.22 20.7093 25.22 20.856 25.22C20.9147 25.3667 21.0467 25.5427 21.252 25.748C21.4867 25.7187 21.824 25.7627 22.264 25.88C22.3813 25.968 22.4693 26.2027 22.528 26.584C22.5867 26.936 22.66 27.156 22.748 27.244C22.9533 27.3027 23.2467 27.3907 23.628 27.508C23.804 27.772 24.0973 28.1093 24.508 28.52C24.6547 28.5493 24.8307 28.5933 25.036 28.652C25.1533 28.7693 25.2267 28.9453 25.256 29.18C25.2853 29.3853 25.344 29.5467 25.432 29.664C25.5493 29.8693 25.7693 30.0307 26.092 30.148C26.5613 30.2947 26.84 30.3827 26.928 30.412C27.016 30.5587 27.148 30.72 27.324 30.896C27.5293 31.0427 28.116 31.204 29.084 31.38C29.8467 31.5267 30.3453 31.7467 30.58 32.04C30.8147 32.3333 30.932 32.6267 30.932 32.92C30.932 33.1253 30.6533 33.7267 30.096 34.724C30.0667 34.9587 29.9347 35.208 29.7 35.472C29.436 35.472 29.0253 35.472 28.468 35.472L28.204 35.736C27.2947 35.9707 26.3267 36.0587 25.3 36C23.5987 35.8827 22.4547 35.8387 21.868 35.868C20.9293 35.9267 20.548 35.9707 20.724 36C20.372 35.824 19.8733 35.6187 19.228 35.384C18.8173 35.472 18.128 35.5013 17.16 35.472C17.0133 35.384 16.808 35.2667 16.544 35.12C16.544 34.24 16.588 33.7267 16.676 33.58C16.7933 33.5213 16.9253 33.448 17.072 33.36C17.0427 33.272 17.0427 33.14 17.072 32.964C17.16 32.8467 17.2773 32.6707 17.424 32.436C18.0107 32.4947 18.7293 32.4653 19.58 32.348C19.492 32.0253 19.3307 31.556 19.096 30.94C18.9787 30.852 18.8467 30.72 18.7 30.544C18.7 30.3093 18.656 29.928 18.568 29.4C18.392 29.1947 18.1867 28.9013 17.952 28.52C17.9227 28.1973 17.8347 27.7427 17.688 27.156C17.424 26.9507 17.0867 26.6427 16.676 26.232C16.676 26.1147 16.676 25.9533 16.676 25.748L16.412 25.616C16.324 25.352 16.1187 25.0587 15.796 24.736C15.6493 24.7653 15.4733 24.7653 15.268 24.736C15.2093 24.648 15.092 24.516 14.916 24.34C14.8867 24.4867 14.8427 24.6627 14.784 24.868C14.608 25.0147 14.3587 25.1173 14.036 25.176C13.596 25.2347 13.288 25.2933 13.112 25.352C13.0827 25.4693 13.0093 25.6013 12.892 25.748C12.628 25.836 12.2467 25.9973 11.748 26.232C11.2787 26.4667 10.7653 26.804 10.208 27.244C10.12 27.5667 10.1053 27.9333 10.164 28.344C10.2227 28.6667 10.2813 28.9747 10.34 29.268C10.4867 29.268 10.6627 29.312 10.868 29.4C10.8387 29.5173 10.8387 29.6493 10.868 29.796C10.7213 30.148 10.5893 30.3533 10.472 30.412C10.56 30.6467 10.604 30.7787 10.604 30.808C10.4867 30.9253 10.3547 31.0573 10.208 31.204C10.208 31.1453 10.252 31.556 10.34 32.436C10.6333 32.4653 11.0587 32.436 11.616 32.348C11.616 32.172 11.8653 31.996 12.364 31.82C12.452 31.82 12.7453 31.9227 13.244 32.128C13.772 32.304 14.0653 32.4067 14.124 32.436C14.1533 32.5533 14.1973 32.6853 14.256 32.832C14.3733 32.832 14.5493 32.876 14.784 32.964C14.9307 33.1987 15.136 33.448 15.4 33.712H15.664C15.6347 33.8587 15.6347 34.0787 15.664 34.372C15.488 34.3427 15.2387 34.3427 14.916 34.372C14.74 34.5187 14.52 34.68 14.256 34.856C14.08 34.8853 13.7867 34.9293 13.376 34.988L13.112 35.252C12.408 35.4573 11.528 35.4133 10.472 35.12L10.076 34.856C9.812 34.8267 9.47467 34.8707 9.064 34.988C8.82933 35.076 8.58 35.164 8.316 35.252C7.964 35.34 7.28933 35.384 6.292 35.384C5.79333 35.2667 5.456 35.2227 5.28 35.252C5.192 35.252 4.86933 35.296 4.312 35.384C3.784 35.4427 3.37333 35.472 3.08 35.472C2.25867 35.472 1.73067 35.2667 1.496 34.856C1.496 34.7387 1.496 34.5773 1.496 34.372C1.37867 34.196 1.26133 34.0347 1.144 33.888C0.968 33.5653 0.909333 33.3893 0.968 33.36C1.08533 33.1253 1.30533 32.8173 1.628 32.436C1.77467 32.348 2.21467 32.2013 2.948 31.996C3.71067 31.7907 4.19467 31.688 4.4 31.688C4.60533 31.7467 4.89867 31.8347 5.28 31.952V32.216C5.28 32.216 5.66133 32.216 6.424 32.216C6.16 31.7467 6.028 31.4827 6.028 31.424V31.336C6.32133 31.1893 6.48267 30.3533 6.512 28.828C6.54133 27.068 6.6 26.1 6.688 25.924C6.776 25.7187 6.84933 25.528 6.908 25.352C6.84933 25.2933 6.71733 24.9267 6.512 24.252C6.30667 23.5773 6.18933 23.152 6.16 22.976C6.13067 22.712 6.17467 22.4333 6.292 22.14C6.38 21.964 6.468 21.7733 6.556 21.568C6.52667 21.392 6.52667 21.1427 6.556 20.82C6.468 20.556 6.424 20.336 6.424 20.16C6.54133 19.7493 6.58533 19.456 6.556 19.28C6.43867 19.1333 6.30667 18.928 6.16 18.664C6.13067 18.4293 6.16 18.1507 6.248 17.828C6.36533 17.388 6.424 17.1533 6.424 17.124C6.45333 16.772 6.40933 16.376 6.292 15.936C6.204 15.4667 6.16 15.144 6.16 14.968C6.16 14.4693 6.27733 13.692 6.512 12.636C6.776 11.5507 6.908 10.7147 6.908 10.128C6.908 9.776 6.864 9.45333 6.776 9.16C6.688 8.984 6.57067 8.77866 6.424 8.544C6.424 8.30933 6.424 8.00133 6.424 7.62C6.30667 7.47333 6.17467 7.268 6.028 7.004C6.05733 7.23867 6.10133 6.76933 6.16 5.596C5.544 5.508 5.00133 5.464 4.532 5.464L4.4 5.112C4.01867 5.14133 3.46133 5.14133 2.728 5.112C1.936 5.024 1.21733 4.51066 0.572 3.572C0.366667 3.16133 0.366667 2.956 0.572 2.956C0.689333 2.22267 0.806667 1.78267 0.924 1.636C1.07067 1.46 1.46667 1.26933 2.112 1.064C2.288 0.975998 2.49333 0.887998 2.728 0.799999ZM45.7081 0.799999C45.7374 0.799999 46.0161 0.843999 46.5441 0.931998C47.0721 0.990665 47.3508 1.03467 47.3801 1.064C47.4681 1.26933 47.6001 1.56266 47.7761 1.944C47.8641 1.97333 47.9961 2.01733 48.1721 2.076C48.2014 2.10533 48.0694 2.19333 47.7761 2.34C47.7761 2.78 47.7761 3 47.7761 3C47.9228 3.02933 48.1428 3.07333 48.4361 3.132C48.4948 3.308 48.5388 3.572 48.5681 3.924H48.3041C48.2161 4.15867 48.1281 4.628 48.0401 5.332C48.0401 5.332 47.9521 5.376 47.7761 5.464C47.3654 5.17066 47.0721 4.73066 46.8961 4.144C46.4561 4.144 46.2361 4.144 46.2361 4.144C46.1481 4.43733 46.0601 4.92133 45.9721 5.596C45.9721 5.86 45.9721 5.992 45.9721 5.992C45.9428 6.02133 45.3414 6.10933 44.1681 6.256C44.0801 6.344 43.9921 6.46133 43.9041 6.608C43.9334 6.872 43.9334 7.224 43.9041 7.664C43.8454 7.78133 43.6988 7.884 43.4641 7.972C43.2294 8.06 43.0681 8.13333 42.9801 8.192V8.456C42.8334 8.57333 42.6721 8.77866 42.4961 9.072C42.5254 9.27733 42.5254 9.54133 42.4961 9.864C42.2028 10.0107 41.8508 10.2747 41.4401 10.656C41.3814 10.744 41.2054 11.3013 40.9121 12.328C41.0588 12.3573 41.3668 12.4013 41.8361 12.46C41.8654 12.9 41.9534 13.4573 42.1001 14.132C42.3934 13.868 42.8188 13.516 43.3761 13.076C43.4934 13.1053 43.6254 13.1053 43.7721 13.076C44.1241 12.8413 44.5494 12.548 45.0481 12.196C45.2241 12.196 45.4881 12.152 45.8401 12.064C45.9868 11.9467 46.1628 11.8147 46.3681 11.668C46.5441 11.6387 46.8521 11.6533 47.2921 11.712C47.5268 11.7413 47.7761 11.7707 48.0401 11.8C48.2161 11.7413 48.5681 11.6973 49.0961 11.668C49.3014 11.7853 49.5508 11.9173 49.8441 12.064C50.3134 12.0053 50.9588 12.0053 51.7801 12.064C51.9268 12.0933 52.0588 12.2253 52.1761 12.46C52.3228 12.6947 52.4108 12.8267 52.4401 12.856C52.8214 12.8853 53.3788 12.9587 54.1121 13.076C54.2881 13.252 54.5081 13.428 54.7721 13.604C55.1534 13.5747 55.6668 13.6187 56.3121 13.736C56.4294 13.7947 56.4881 13.8973 56.4881 14.044C56.5174 14.1907 56.5614 14.3227 56.6201 14.44C56.6788 14.528 56.8548 14.6307 57.1481 14.748C57.4708 14.836 57.6761 14.9387 57.7641 15.056C57.7641 15.32 57.8521 15.7013 58.0281 16.2C58.1748 16.2293 58.3801 16.3173 58.6441 16.464C58.6734 16.64 58.7614 16.904 58.9081 17.256C59.1428 17.344 59.4068 17.4613 59.7001 17.608C59.4361 18.488 59.3921 19.1773 59.5681 19.676C59.7148 19.8227 59.8908 19.9987 60.0961 20.204C60.1548 20.4387 60.1548 20.9227 60.0961 21.656C60.1841 21.6853 60.1841 21.7147 60.0961 21.744C60.0374 21.744 60.0814 21.744 60.2281 21.744C60.0814 22.3307 59.9494 22.9467 59.8321 23.592C59.8321 23.6507 59.8761 23.768 59.9641 23.944C60.0521 24.12 60.0961 24.208 60.0961 24.208C60.0374 24.472 59.9934 24.912 59.9641 25.528C59.9641 25.9093 60.0081 26.3787 60.0961 26.936C60.0961 26.9653 60.6534 27.3173 61.7681 27.992C61.5334 28.2267 61.1374 28.564 60.5801 29.004C60.8734 29.532 61.0054 30.0893 60.9761 30.676C60.5361 30.9107 60.1548 31.1747 59.8321 31.468C59.6561 31.7027 59.4361 31.9667 59.1721 32.26C59.0254 32.26 58.8494 32.304 58.6441 32.392C58.6734 32.48 58.6734 32.5973 58.6441 32.744C58.6148 32.832 58.4534 33.0227 58.1601 33.316C57.8961 33.6093 57.7201 33.7707 57.6321 33.8C57.3974 33.8 57.0454 33.844 56.5761 33.932C56.4588 34.0493 56.2828 34.1813 56.0481 34.328C55.9308 34.2987 55.7694 34.2987 55.5641 34.328C55.1534 34.504 54.5814 34.7093 53.8481 34.944C53.4668 34.944 52.8654 34.988 52.0441 35.076C51.6921 35.252 51.1788 35.428 50.5041 35.604C50.1521 35.5453 49.5948 35.5013 48.8321 35.472C48.7441 35.5013 48.3774 35.604 47.7321 35.78C47.2041 35.956 46.7934 36.0293 46.5001 36C46.2948 36 45.7814 35.8533 44.9601 35.56C44.1681 35.2667 43.6988 35.0613 43.5521 34.944C43.4348 34.7973 43.2441 34.592 42.9801 34.328C42.6868 34.2107 42.2174 33.9907 41.5721 33.668C41.3961 33.5507 40.9268 33.0813 40.1641 32.26C40.1641 32.1427 40.1641 32.0107 40.1641 31.864C40.0468 31.864 39.9148 31.82 39.7681 31.732C39.7681 31.5853 39.7241 31.4093 39.6361 31.204H39.3721C39.4014 31.0867 39.4014 30.9547 39.3721 30.808C39.1668 30.72 38.9028 30.5147 38.5801 30.192C38.5801 29.928 38.5361 29.532 38.4481 29.004C38.3308 28.916 38.2134 28.784 38.0961 28.608C38.1254 28.4613 38.1254 28.256 38.0961 27.992C37.8614 27.7573 37.5974 27.4053 37.3041 26.936C37.3041 26.8187 37.3041 26.6427 37.3041 26.408C37.1868 26.232 37.0548 25.9827 36.9081 25.66C36.7321 24.956 36.6001 24.2227 36.5121 23.46C36.4241 22.5507 36.4681 21.7733 36.6441 21.128C36.7614 20.9813 36.8934 20.8053 37.0401 20.6C37.1574 19.984 37.1574 19.4267 37.0401 18.928C36.9228 18.7813 36.7908 18.6053 36.6441 18.4C36.5854 17.9307 36.6294 17.3733 36.7761 16.728C36.8934 16.5813 37.0254 16.4053 37.1721 16.2C37.0841 16.0533 37.0401 15.7453 37.0401 15.276C37.2161 15.1587 37.3921 14.9973 37.5681 14.792C37.4801 14.528 37.4361 14.132 37.4361 13.604L38.0961 13.076C38.0668 13.076 38.0228 12.8267 37.9641 12.328C38.1108 12.24 38.1108 12.196 37.9641 12.196C38.1401 10.9347 38.1841 10.1133 38.0961 9.732C38.2721 9.58533 38.5214 9.36533 38.8441 9.072C38.5801 8.192 38.4481 7.72267 38.4481 7.664H38.5801C38.9028 7.19467 39.2548 6.68133 39.6361 6.124C39.6948 5.97733 39.7241 5.62533 39.7241 5.068C39.7534 4.68667 39.8561 4.42267 40.0321 4.276C40.1201 4.30533 40.2521 4.30533 40.4281 4.276L40.6481 4.056C41.1174 3.968 41.5574 3.89467 41.9681 3.836C42.4081 3.77733 42.7014 3.58667 42.8481 3.264C42.8481 3.02933 42.8921 2.67733 42.9801 2.208C43.0974 2.06133 43.3468 1.87066 43.7281 1.636C44.1388 1.372 44.4614 1.22533 44.6961 1.196C44.8134 1.196 44.9748 1.196 45.1801 1.196C45.2974 1.07867 45.4734 0.946666 45.7081 0.799999ZM50.3721 0.931998C50.4601 0.961331 50.5334 1.03466 50.5921 1.152C50.5628 1.21067 50.5334 1.26933 50.5041 1.328C50.3574 1.152 50.3134 1.02 50.3721 0.931998ZM49.4481 1.592C49.8294 1.91466 50.0201 2.12 50.0201 2.208C50.0201 2.208 49.8294 2.472 49.4481 3C49.3014 2.88267 49.1401 2.70667 48.9641 2.472C48.9934 2.17867 49.0374 2.09067 49.0961 2.208C49.0961 1.97333 49.0961 1.856 49.0961 1.856C49.1841 1.79733 49.3014 1.70933 49.4481 1.592ZM59.3041 15.672C59.1574 16.2587 59.1134 16.3907 59.1721 16.068C59.1428 16.0093 59.1134 15.9507 59.0841 15.892C59.0841 15.7453 59.1574 15.672 59.3041 15.672ZM48.9641 15.804C48.7588 15.8333 48.4361 15.9653 47.9961 16.2C47.5561 16.4053 47.3068 16.5813 47.2481 16.728C47.2774 16.8747 47.2774 17.0507 47.2481 17.256C47.0428 17.2267 46.7054 17.256 46.2361 17.344C46.1481 17.52 46.0161 17.696 45.8401 17.872C45.8401 17.872 45.7081 17.784 45.4441 17.608C45.3268 17.608 45.1801 17.652 45.0041 17.74C44.8574 17.828 44.7548 17.872 44.6961 17.872C44.6961 18.0773 44.6961 18.3413 44.6961 18.664C44.6081 18.6933 44.5201 18.7813 44.4321 18.928C43.1414 18.8693 42.3641 18.9573 42.1001 19.192C41.9241 19.3093 41.8361 19.5 41.8361 19.764C41.8654 20.1747 41.8654 20.4093 41.8361 20.468L41.5721 20.6C41.1614 21.6853 41.0294 22.5507 41.1761 23.196C41.1761 23.3133 41.2201 23.4893 41.3081 23.724C41.4254 23.724 41.6014 23.768 41.8361 23.856C41.6308 24.2667 41.4988 24.912 41.4401 25.792C42.2028 26.0267 42.9361 26.1147 43.6401 26.056C43.6401 26.056 43.6841 26.1733 43.7721 26.408C43.7428 26.4667 43.6988 26.5107 43.6401 26.54C43.6108 26.6867 43.6108 26.8627 43.6401 27.068C43.8454 27.0973 44.1094 27.2293 44.4321 27.464C44.4321 27.6107 44.4761 27.8307 44.5641 28.124C44.4761 28.124 44.3001 28.168 44.0361 28.256C44.0361 28.4027 43.9921 28.608 43.9041 28.872C44.1974 28.872 44.6668 28.916 45.3121 29.004C45.4881 29.0627 45.7668 29.3267 46.1481 29.796C46.5881 30.3533 46.8374 30.6467 46.8961 30.676C46.8961 30.676 46.8961 30.5147 46.8961 30.192C46.8374 30.1627 46.7348 30.1627 46.5881 30.192C46.4708 30.192 46.4121 30.1773 46.4121 30.148C46.3828 30.148 46.4561 30.1187 46.6321 30.06C47.1601 29.8547 47.5854 29.752 47.9081 29.752C48.7001 29.752 49.1841 30.412 49.3601 31.732H51.4281C51.4868 31.556 51.6041 31.248 51.7801 30.808C51.8974 30.7493 52.0294 30.7347 52.1761 30.764C52.3521 30.7933 52.4401 30.808 52.4401 30.808C52.6161 30.7787 52.9974 30.6467 53.5841 30.412C54.1708 30.1773 54.4788 30.016 54.5081 29.928C54.6254 29.7227 54.6841 29.356 54.6841 28.828C54.6841 28.2707 54.6988 27.9187 54.7281 27.772C54.7868 27.6253 54.9188 27.4493 55.1241 27.244C55.3294 27.0093 55.4321 26.8187 55.4321 26.672V26.54H55.6961C55.7254 26.3053 55.6668 26.0707 55.5201 25.836C55.3734 25.572 55.3001 25.4253 55.3001 25.396C55.2708 25.1907 55.3148 24.9707 55.4321 24.736C55.5201 24.6187 55.6081 24.4867 55.6961 24.34C55.8721 23.6653 55.9161 23.064 55.8281 22.536C55.6228 22.272 55.3588 21.8907 55.0361 21.392C55.0361 21.2453 55.0361 21.0693 55.0361 20.864C54.9188 20.4533 54.6108 19.852 54.1121 19.06C53.8188 18.5907 53.6134 18.3267 53.4961 18.268H53.2321C53.2321 18.1507 53.2321 18.0187 53.2321 17.872C52.9681 17.6667 52.6161 17.3293 52.1761 16.86C52.1761 16.7133 52.1321 16.5373 52.0441 16.332C51.9268 16.2733 51.4281 16.1707 50.5481 16.024C49.6974 15.848 49.1694 15.7747 48.9641 15.804ZM78.4248 0.799999V1.064C78.6008 1.12266 78.8062 1.196 79.0408 1.284C79.2755 1.34266 79.5395 1.372 79.8328 1.372C80.0968 1.372 80.4635 1.34266 80.9328 1.284C81.4315 1.22533 81.7982 1.196 82.0328 1.196C82.3262 1.196 82.5902 1.22533 82.8248 1.284C83.0595 1.46 83.3822 1.66533 83.7928 1.9C83.8808 1.9 84.0128 1.9 84.1888 1.9C84.3062 2.04666 84.4675 2.208 84.6728 2.384C84.8488 2.44267 85.0542 2.39867 85.2888 2.252C85.5235 2.076 85.7582 2.00266 85.9928 2.032L86.1248 2.252C86.3888 2.252 86.7555 2.296 87.2248 2.384C87.3128 2.53066 87.4448 2.692 87.6208 2.868C87.7382 2.80933 87.9435 2.78 88.2368 2.78C88.2368 2.83867 88.3102 2.912 88.4568 3V3.264C87.9875 3.528 87.7088 3.71867 87.6208 3.836C87.5622 3.95333 87.5622 4.29066 87.6208 4.848C87.7675 4.78933 88.0022 4.74533 88.3248 4.716C88.3542 4.77466 88.4422 4.86266 88.5888 4.98V6.212C89.3808 6.27067 89.8355 6.27067 89.9528 6.212C89.9822 6.06533 90.0555 5.88933 90.1728 5.684C90.4368 5.80133 90.8035 6.00666 91.2728 6.3C91.3022 6.41733 91.3462 6.54933 91.4048 6.696C91.5222 6.696 91.6395 6.74 91.7568 6.828C91.7568 6.828 91.7568 7.224 91.7568 8.016C91.7275 8.04533 91.6982 8.17733 91.6688 8.412C91.1408 8.324 90.7742 8.28 90.5688 8.28C90.4808 8.33867 90.3928 8.42667 90.3048 8.544C90.3928 8.74933 90.4368 9.028 90.4368 9.38C90.2608 9.468 90.0555 9.58533 89.8208 9.732C89.7915 9.79067 89.8355 9.83467 89.9528 9.864C89.4835 10.6853 89.2782 11.3453 89.3368 11.844C89.5422 12.2547 89.7768 12.8267 90.0408 13.56C90.0408 13.56 90.0408 13.9707 90.0408 14.792C89.8648 14.88 89.3808 14.9973 88.5888 15.144C88.5888 15.5253 88.5008 16.024 88.3248 16.64C88.0608 16.7867 87.7822 16.948 87.4888 17.124C87.4888 17.3293 87.4008 17.608 87.2248 17.96C87.1075 18.048 86.9315 18.092 86.6968 18.092H86.6528C86.4182 18.092 86.2422 18.136 86.1248 18.224C86.0662 18.5467 85.8608 18.9573 85.5088 19.456C85.3035 19.5147 84.9808 19.632 84.5408 19.808C84.4235 19.984 84.1742 20.1893 83.7928 20.424C83.5582 20.424 83.1915 20.468 82.6928 20.556V20.776C82.5462 20.864 82.2968 20.996 81.9448 21.172V21.392C81.9155 21.4507 81.8422 21.48 81.7248 21.48C81.6075 21.48 81.5195 21.4947 81.4608 21.524C81.3728 21.7 81.2115 21.9053 80.9768 22.14C80.5955 22.1693 80.0675 22.2867 79.3928 22.492C79.3048 22.6973 79.1435 22.9467 78.9088 23.24C78.7622 23.328 78.5275 23.372 78.2048 23.372C77.8822 23.372 77.6622 23.416 77.5448 23.504C77.5155 23.7387 77.4422 24.0173 77.3248 24.34C77.2075 24.34 77.0755 24.34 76.9288 24.34C76.8115 24.4573 76.6502 24.5893 76.4448 24.736C76.2395 24.736 75.9168 24.8093 75.4768 24.956C75.3595 25.1613 75.1542 25.4547 74.8608 25.836C74.7435 25.836 74.5822 25.8653 74.3768 25.924V26.188C74.1422 26.364 73.8048 26.5693 73.3648 26.804C73.2768 26.804 73.1595 26.804 73.0128 26.804C73.0128 26.9213 72.9688 27.0827 72.8808 27.288C72.5875 27.4933 72.2648 27.7427 71.9128 28.036C71.9128 28.036 71.9128 28.2413 71.9128 28.652C72.0888 28.74 72.1622 28.8133 72.1328 28.872H71.9128C71.9128 28.872 71.9128 29.004 71.9128 29.268C71.8835 29.3267 71.6342 29.488 71.1648 29.752C71.1942 29.8693 71.1942 29.9867 71.1648 30.104H70.9448C70.9448 30.3093 70.9448 30.6027 70.9448 30.984C70.9448 31.0427 70.9742 31.116 71.0328 31.204C71.2675 31.4093 72.0155 31.5707 73.2768 31.688V31.336C73.3942 31.336 73.5115 31.3947 73.6288 31.512C73.7755 31.6293 73.8635 31.7027 73.8928 31.732C73.9515 31.732 74.3035 31.7613 74.9488 31.82C75.6235 31.8493 76.0048 31.8493 76.0928 31.82C76.2102 31.644 76.3715 31.4387 76.5768 31.204C76.6355 31.1747 77.0462 31.0133 77.8088 30.72V30.588C78.0435 30.588 78.3368 30.7347 78.6888 31.028C79.0408 31.3213 79.3195 31.468 79.5248 31.468C79.5542 31.468 79.6568 31.4093 79.8328 31.292C80.0088 31.1747 80.1115 31.1013 80.1408 31.072C80.4048 31.16 80.8448 31.204 81.4608 31.204C81.6368 31.116 81.9302 30.9547 82.3408 30.72C82.5462 30.6907 82.7808 30.72 83.0448 30.808C83.2208 30.8667 83.3968 30.9253 83.5728 30.984C83.8955 31.0133 84.3502 30.984 84.9368 30.896C85.6408 30.7787 86.0368 30.72 86.1248 30.72C86.7408 30.6907 87.1515 30.7347 87.3568 30.852C87.4155 30.9693 87.5035 31.0867 87.6208 31.204C87.9435 31.292 88.4568 31.336 89.1608 31.336C89.8942 31.3067 90.4368 31.336 90.7888 31.424C90.9648 31.4533 91.2875 31.5853 91.7568 31.82C91.7862 31.996 91.7862 32.2893 91.7568 32.7C91.0235 32.612 90.3782 32.656 89.8208 32.832C89.7035 32.8027 89.5422 32.8027 89.3368 32.832C89.2488 32.92 89.1168 33.0373 88.9408 33.184C88.9408 33.4187 88.9408 33.536 88.9408 33.536C88.8235 33.624 88.7062 33.712 88.5888 33.8C88.6182 33.9173 88.6182 34.0787 88.5888 34.284C88.2368 34.8413 87.7822 35.164 87.2248 35.252C87.0488 35.2227 86.8142 35.2227 86.5208 35.252C86.3155 35.4867 86.0222 35.736 85.6408 36C84.9955 36.1467 84.4235 36.0587 83.9248 35.736L83.7928 35.516C83.5875 35.5453 83.2648 35.5893 82.8248 35.648C82.6488 35.6187 82.4435 35.5747 82.2088 35.516C81.9742 35.428 81.7688 35.384 81.5928 35.384C81.4462 35.384 81.1088 35.4427 80.5808 35.56C80.0822 35.6773 79.6422 35.7067 79.2608 35.648C79.2608 35.648 79.1875 35.604 79.0408 35.516C78.8942 35.428 78.8062 35.384 78.7768 35.384C78.7475 35.384 78.6008 35.4427 78.3368 35.56C78.0728 35.648 77.8528 35.6773 77.6768 35.648C77.5008 35.5307 77.2955 35.3987 77.0608 35.252C76.8555 35.2813 76.5622 35.2813 76.1808 35.252C76.0048 35.076 75.7702 34.8707 75.4768 34.636C75.0662 34.548 74.4648 34.548 73.6728 34.636C72.6462 34.724 72.1035 34.768 72.0448 34.768C71.3995 34.768 70.6955 34.6947 69.9328 34.548C69.7862 34.4307 69.5808 34.2987 69.3168 34.152C69.0822 34.1813 68.7595 34.1813 68.3488 34.152L68.2168 33.932C67.9822 33.756 67.7768 33.3893 67.6008 32.832C67.3662 32.0107 67.2488 31.6293 67.2488 31.688L67.5128 31.468C67.5422 30.6467 67.7475 29.5467 68.1288 28.168C68.3048 28.0507 68.4955 27.8747 68.7008 27.64C68.7008 27.4933 68.7008 27.2587 68.7008 26.936C68.8475 26.672 69.0235 26.3787 69.2288 26.056C69.3168 26.0267 69.4782 25.9533 69.7128 25.836V25.572C69.7128 25.572 69.9915 25.4107 70.5488 25.088V24.824C70.6662 24.824 70.8275 24.7947 71.0328 24.736C71.1208 24.5307 71.2968 24.2373 71.5608 23.856C71.7955 23.7387 72.0742 23.5773 72.3968 23.372C72.3968 23.2253 72.4408 23.02 72.5288 22.756C72.9982 22.4333 73.5702 22.0227 74.2448 21.524C74.6262 21.2013 74.8315 20.996 74.8608 20.908C74.8608 20.556 74.8608 20.4387 74.8608 20.556C75.1248 20.556 75.4915 20.512 75.9608 20.424C76.1368 20.16 76.3862 19.8667 76.7088 19.544C76.9142 19.5733 77.1928 19.5733 77.5448 19.544C77.7502 19.3973 78.0435 19.2067 78.4248 18.972C78.3955 18.9133 78.3515 18.7813 78.2928 18.576C78.3515 18.5467 78.4248 18.5027 78.5128 18.444C78.5128 18.444 78.4835 18.3267 78.4248 18.092C78.6008 18.0627 78.9235 17.9747 79.3928 17.828C79.4808 17.7107 79.5982 17.5933 79.7448 17.476C79.8622 17.5347 80.0675 17.5787 80.3608 17.608C80.5075 17.432 80.7128 17.2267 80.9768 16.992C81.0942 16.992 81.2262 16.992 81.3728 16.992C81.3728 16.816 81.4022 16.6107 81.4608 16.376C81.5488 16.288 81.7542 16.2147 82.0768 16.156C82.4288 16.0973 82.6342 16.0387 82.6928 15.98C82.7515 15.892 82.8835 15.7747 83.0888 15.628C83.0595 15.3933 83.0595 15.0707 83.0888 14.66C83.3235 14.484 83.5582 14.2787 83.7928 14.044C83.8808 13.8973 84.0128 13.4867 84.1888 12.812C84.0715 12.5773 84.0275 12.1667 84.0568 11.58C84.1155 11.4333 84.2475 11.3307 84.4528 11.272C84.6875 11.2133 84.9222 11.1547 85.1568 11.096V10.876C85.0102 10.6413 84.8488 10.348 84.6728 9.996C84.8782 9.908 84.8782 9.65866 84.6728 9.248C84.4088 9.072 84.1155 8.83733 83.7928 8.544C83.7342 8.39733 83.6902 8.16267 83.6608 7.84C83.6608 7.63467 83.5288 7.47333 83.2648 7.356C83.0302 7.23867 82.6342 7.06267 82.0768 6.828C81.7248 6.59333 81.5195 6.388 81.4608 6.212C81.4902 6.09466 81.4902 5.96266 81.4608 5.816C81.2848 5.69866 80.9328 5.64 80.4048 5.64H80.2288C79.8768 5.64 79.5982 5.62533 79.3928 5.596C79.3048 5.56667 79.0555 5.44933 78.6448 5.244C78.2635 5.00933 77.9408 4.892 77.6768 4.892C77.5595 4.892 77.4422 4.92133 77.3248 4.98L76.7968 5.596C76.4155 5.596 75.8142 5.66933 74.9928 5.816C74.9048 5.93333 74.8168 6.06533 74.7288 6.212C74.6408 6.18267 74.5235 6.18267 74.3768 6.212V6.3C74.1715 6.564 73.9222 6.85733 73.6288 7.18C73.4528 7.18 73.2182 7.23867 72.9248 7.356C72.6608 7.47333 72.3235 7.664 71.9128 7.928V8.148C71.8835 8.03067 71.8395 8.07467 71.7808 8.28C71.8395 8.77866 71.9568 9.30667 72.1328 9.864C72.1328 9.952 72.1035 10.04 72.0448 10.128C71.9275 10.0987 71.7662 10.0987 71.5608 10.128C70.9742 10.2747 70.5928 10.524 70.4168 10.876C70.4462 10.9933 70.4462 11.1547 70.4168 11.36C70.2995 12.0053 70.1528 12.4013 69.9768 12.548C69.8008 12.6653 69.3462 12.7533 68.6128 12.812C68.4662 12.636 68.3048 12.3573 68.1288 11.976C68.0995 11.8 68.1288 11.536 68.2168 11.184C68.3048 10.832 68.3488 10.6413 68.3488 10.612C68.2902 10.2893 68.2462 9.92267 68.2168 9.512L68.4808 9.38C68.6568 9.028 68.9062 8.5 69.2288 7.796C69.2288 7.62 69.2288 7.42933 69.2288 7.224C69.2582 6.98933 69.3608 6.872 69.5368 6.872C69.5955 6.872 69.6542 6.85733 69.7128 6.828V6.564C69.8008 6.50533 69.9182 6.41733 70.0648 6.3C70.0942 6.124 70.1822 5.84533 70.3288 5.464C70.3875 5.43467 70.4608 5.39066 70.5488 5.332C70.5782 4.98 70.7102 4.496 70.9448 3.88H71.1648C71.2528 3.73333 71.3848 3.572 71.5608 3.396C71.8542 3.308 72.2942 3.132 72.8808 2.868C73.2328 2.57467 73.7608 2.208 74.4648 1.768C74.6115 1.73866 74.7728 1.724 74.9488 1.724H75.0368C75.1835 1.724 75.3448 1.69467 75.5208 1.636C75.6968 1.548 75.9168 1.43067 76.1808 1.284C76.3568 1.31333 76.6062 1.31333 76.9288 1.284L77.1928 1.064C77.3982 1.064 77.6768 1.064 78.0288 1.064C78.0582 1.064 78.1168 1.02 78.2048 0.931998C78.2928 0.843999 78.3662 0.799999 78.4248 0.799999ZM91.6688 8.896C91.9035 9.27733 92.0208 9.49733 92.0208 9.556C92.0208 9.70267 91.9035 9.80533 91.6688 9.864C91.5808 9.89333 91.5222 9.908 91.4928 9.908C91.3755 9.908 91.3168 9.908 91.3168 9.908C91.2875 9.87866 91.3608 9.82 91.5368 9.732C91.1555 9.43867 90.9648 9.292 90.9648 9.292C90.9648 9.23333 91.1995 9.10133 91.6688 8.896ZM91.6688 10.128C91.8742 10.3333 91.8742 10.4067 91.6688 10.348C91.5808 10.26 91.5808 10.1867 91.6688 10.128ZM89.8208 10.348C90.3488 10.612 90.7595 10.8613 91.0528 11.096C90.6715 11.0667 90.2168 10.8613 89.6888 10.48C89.7182 10.48 89.7328 10.4653 89.7328 10.436C89.7035 10.3773 89.6888 10.348 89.6888 10.348C89.6888 10.348 89.7328 10.348 89.8208 10.348Z" fill="#FA3A3A" fill-opacity="0.81"/>
</svg>
