<svg width="979" height="144" viewBox="0 0 979 144" fill="none" xmlns="http://www.w3.org/2000/svg">
<g filter="url(#filter0_d)">
<path d="M38.776 10.608C49.432 10.32 65.752 10.176 87.736 10.176C109.816 10.176 121.816 10.272 123.736 10.464C126.424 10.848 128.248 11.808 129.208 13.344C130.264 14.88 130.984 18.048 131.368 22.848C131.656 25.152 132.04 28.272 132.52 32.208C133.48 38.352 134.2 51.648 134.68 72.096C135.064 91.584 134.968 104.592 134.392 111.12C133.816 117.552 132.472 121.344 130.36 122.496C128.536 123.36 117.736 122.88 97.96 121.056L80.824 119.328L47.128 119.616C24.76 119.808 13.144 119.712 12.28 119.328C11.512 119.136 10.792 118.608 10.12 117.744C9.736 117.168 9.496 116.352 9.4 115.296C9.304 114.336 9.304 111.744 9.4 107.52C9.496 101.376 9.16 95.28 8.392 89.232C5.992 70.032 4.792 51.216 4.792 32.784C4.792 23.568 4.888 18.048 5.08 16.224C5.272 14.304 5.992 13.056 7.24 12.48C8.968 11.616 19.48 10.992 38.776 10.608ZM115.672 22.128C112.984 21.936 110.728 21.84 108.904 21.84C100.84 22.128 89.944 22.416 76.216 22.704C73.624 22.704 72.184 22.848 71.896 23.136C71.608 23.328 71.656 24.384 72.04 26.304L72.616 28.608L75.352 28.32C76.984 28.128 79 27.648 81.4 26.88C84.856 25.728 87.16 26.112 88.312 28.032C89.272 29.568 89.416 30.912 88.744 32.064C88.072 33.12 86.392 34.464 83.704 36.096C78.424 39.168 73.336 42.768 68.44 46.896C63.544 50.928 59.704 54.72 56.92 58.272C55.48 60.096 54.472 61.152 53.896 61.44C53.224 61.824 52.36 62.016 51.304 62.016C50.248 61.92 49.432 61.632 48.856 61.152C47.8 60.576 47.224 59.664 47.128 58.416C47.032 57.072 47.176 53.904 47.56 48.912C48.04 42.768 48.232 38.208 48.136 35.232C48.04 33.12 48.04 31.824 48.136 31.344C48.232 30.768 48.568 30.192 49.144 29.616C49.816 28.944 50.44 28.56 51.016 28.464C51.688 28.368 53.656 28.32 56.92 28.32H63.256L62.824 25.728L62.392 23.136H43.24C29.992 23.04 22.072 22.896 19.48 22.704L15.016 22.416L14.44 24.144C14.152 25.2 14.008 25.824 14.008 26.016C14.008 26.112 15.832 26.256 19.48 26.448C23.128 26.544 25.816 26.976 27.544 27.744C29.176 28.608 30.328 29.568 31 30.624C31.672 31.68 32.152 33.312 32.44 35.52C33.016 40.32 33.448 49.776 33.736 63.888C34.12 78 34.168 87.504 33.88 92.4C33.496 97.776 32.776 101.04 31.72 102.192C30.76 103.344 28.12 103.92 23.8 103.92H18.472L18.328 107.232C18.232 109.536 18.184 110.736 18.184 110.832C18.28 110.928 25.864 110.832 40.936 110.544L63.544 110.256L63.4 108.384C63.304 107.136 63.16 106.368 62.968 106.08C62.776 105.984 61.192 105.84 58.216 105.648C53.896 105.36 51.304 104.544 50.44 103.2C49.672 101.76 48.76 97.152 47.704 89.376C47.416 87.168 47.512 85.2 47.992 83.472C48.472 81.744 49.24 80.16 50.296 78.72C51.448 77.28 53.512 75.168 56.488 72.384C60.04 69.024 62.44 67.152 63.688 66.768C65.416 66.384 66.856 66.576 68.008 67.344C69.256 68.112 71.176 70.032 73.768 73.104C77.512 77.52 81.4 82.32 85.432 87.504C89.464 92.592 91.912 95.76 92.776 97.008C93.256 97.872 93.496 99.072 93.496 100.608C93.592 102.048 93.448 103.296 93.064 104.352C92.488 105.6 91.624 106.416 90.472 106.8C89.416 107.184 87.592 107.28 85 107.088C76.36 106.512 72.04 106.368 72.04 106.656C72.04 106.752 72.088 106.896 72.184 107.088C72.376 107.568 72.472 108.24 72.472 109.104V110.4H76.648C79.336 110.4 86.44 110.928 97.96 111.984C109.96 113.136 117.304 113.76 119.992 113.856L125.032 114.144L125.32 112.704C125.512 111.744 125.608 110.544 125.608 109.104C125.608 108.048 125.512 107.424 125.32 107.232C125.224 106.944 124.888 106.8 124.312 106.8C123.16 106.8 121.336 106.56 118.84 106.08C116.44 105.504 114.472 104.88 112.936 104.208C108.616 102.576 104.68 100.032 101.128 96.576C97.672 93.12 93.304 87.552 88.024 79.872C85.048 75.552 82.696 72.336 80.968 70.224C77.32 65.52 74.872 61.728 73.624 58.848C72.472 55.872 72.28 53.184 73.048 50.784C73.624 49.152 74.488 47.712 75.64 46.464C76.888 45.216 78.904 43.632 81.688 41.712C85.24 39.504 88.216 37.248 90.616 34.944C95.416 30.528 99.112 27.792 101.704 26.736C104.392 25.68 108.616 25.296 114.376 25.584C119.176 25.776 121.576 25.776 121.576 25.584C121.576 25.296 121.288 24.672 120.712 23.712C120.232 23.04 119.752 22.656 119.272 22.56C118.888 22.368 117.688 22.224 115.672 22.128ZM163.482 52.224C166.17 51.36 168.714 51.456 171.114 52.512C173.514 53.472 175.386 55.248 176.73 57.84C178.746 59.952 180.234 62.64 181.194 65.904C182.922 71.184 183.258 76.896 182.202 83.04C181.05 89.568 178.602 94.752 174.858 98.592C170.25 103.392 164.586 105.024 157.866 103.488C153.354 102.432 150.138 98.976 148.218 93.12C146.682 88.608 146.154 83.424 146.634 77.568C147.21 71.616 148.65 66.432 150.954 62.016C154.026 56.544 158.01 53.28 162.906 52.224C163.098 52.224 163.29 52.224 163.482 52.224ZM183.93 48.768C179.706 44.352 174.762 41.616 169.098 40.56C161.418 39.12 154.41 40.992 148.074 46.176C141.354 51.648 136.746 59.856 134.25 70.8C134.154 71.76 134.106 72.672 134.106 73.536C133.338 84.672 134.97 93.84 139.002 101.04C143.226 108.72 149.802 112.56 158.73 112.56C163.242 112.56 166.602 112.368 168.81 111.984C172.074 111.504 174.954 110.496 177.45 108.96C183.21 105.504 187.482 100.752 190.266 94.704C190.458 94.224 190.65 93.744 190.842 93.264C191.61 91.248 192.09 89.376 192.282 87.648C192.954 83.04 192.858 77.952 191.994 72.384C191.226 66.816 189.786 61.488 187.674 56.4C186.522 53.712 185.274 51.168 183.93 48.768ZM138.57 9.16799C140.202 8.78399 142.122 8.44799 144.33 8.16C150.954 7.19999 159.546 6.71999 170.106 6.71999H170.25C177.546 6.23999 183.69 6.04799 188.682 6.144C192.522 6.24 195.69 6.528 198.186 7.008C199.818 7.296 201.162 7.632 202.218 8.01599C202.986 8.112 203.706 8.208 204.378 8.304C205.626 8.49599 206.634 8.68799 207.402 8.88C208.938 9.264 210.09 9.888 210.858 10.752C211.434 11.52 211.866 12.336 212.154 13.2C212.25 13.584 212.298 14.016 212.298 14.496V14.784V14.928V15.072L212.154 15.216C212.154 23.184 211.866 34.128 211.29 48.048C211.194 48.816 211.098 50.016 211.002 51.648C210.522 62.88 210.186 71.28 209.994 76.848C209.994 80.016 210.09 84.816 210.282 91.248C210.282 92.784 210.282 93.984 210.282 94.848C210.57 103.776 210.378 110.928 209.706 116.304C209.706 116.4 209.658 116.64 209.562 117.024V117.168C209.562 117.744 209.514 118.272 209.418 118.752C209.226 119.52 209.034 120.24 208.842 120.912C208.362 122.16 207.69 123.12 206.826 123.792C206.058 124.368 204.906 124.704 203.37 124.8C202.698 124.896 201.738 124.944 200.49 124.944C198.378 124.944 195.498 124.896 191.85 124.8C184.938 124.608 176.442 124.224 166.362 123.648C156.666 123.072 148.266 122.496 141.162 121.92C137.418 121.632 134.538 121.392 132.522 121.2C131.37 121.008 130.458 120.864 129.786 120.768C128.346 120.576 127.29 120.144 126.618 119.472C126.234 119.184 125.898 118.848 125.61 118.464C124.746 117.888 124.074 117.072 123.594 116.016C122.922 114.768 122.346 110.16 121.866 102.192C121.482 96.528 121.098 88.56 120.714 78.288C120.618 75.216 120.474 71.376 120.282 66.768C120.282 66 120.282 65.088 120.282 64.032C120.186 62.688 120.138 61.824 120.138 61.44C120.042 59.328 119.994 57.648 119.994 56.4C119.706 49.2 119.514 44.832 119.418 43.296C119.226 40.896 119.082 37.392 118.986 32.784C118.89 32.304 118.842 31.92 118.842 31.632C118.842 28.56 118.794 26.16 118.698 24.432C118.698 24.336 118.698 24.144 118.698 23.856C118.602 23.568 118.554 23.232 118.554 22.848C118.458 22.464 118.41 22.176 118.41 21.984C118.314 21.024 118.266 20.112 118.266 19.248C118.17 17.52 118.17 16.128 118.266 15.072C118.362 14.208 118.554 13.44 118.842 12.768C119.13 12.096 119.466 11.52 119.85 11.04C120.714 10.272 121.722 9.79199 122.874 9.6C127.386 9.12 132.618 8.976 138.57 9.16799ZM221.064 9.6C223.464 9.40799 227.448 9.31199 233.016 9.31199C238.68 9.31199 243.384 9.40799 247.128 9.6C251.544 9.984 259.224 10.752 270.168 11.904L286.296 13.776L301.56 13.488C316.536 13.2 325.176 13.632 327.48 14.784C329.688 15.936 331.656 18.672 333.384 22.992C337.224 32.4 340.968 47.664 344.616 68.784C345.864 75.888 346.488 81.744 346.488 86.352C346.392 93.36 346.056 100.704 345.48 108.384C345 115.968 344.472 120.288 343.896 121.344C343.224 122.688 341.784 123.456 339.576 123.648C337.368 123.84 330.36 123.888 318.552 123.792C256.152 122.928 220.152 122.64 210.552 122.928L199.032 123.36L196.584 122.208C194.952 121.344 193.848 120.576 193.272 119.904C192.312 118.56 191.832 116.016 191.832 112.272C191.832 108.528 192.312 102.288 193.272 93.552C193.56 90.384 193.704 87.408 193.704 84.624C193.704 81.84 193.512 75.36 193.128 65.184C192.648 50.4 192.504 39.6 192.696 32.784C192.792 25.392 193.224 20.544 193.992 18.24C194.664 15.84 196.152 14.064 198.456 12.912C200.76 11.952 205.368 11.136 212.28 10.464C214.872 10.272 217.8 9.984 221.064 9.6ZM220.92 40.848C220.152 40.464 218.232 40.176 215.16 39.984C212.184 39.792 210.408 39.792 209.832 39.984C209.64 40.08 208.728 40.224 207.096 40.416L205.08 40.848L205.224 44.304C205.32 46.704 205.416 47.952 205.512 48.048C205.704 48.144 207.144 48 209.832 47.616C212.52 47.136 215.208 46.944 217.896 47.04C220.584 47.136 222.36 47.472 223.224 48.048C224.376 48.816 225.096 49.824 225.384 51.072C225.768 52.32 226.008 54.912 226.104 58.848C226.296 64.608 226.056 72.336 225.384 82.032C224.712 91.632 223.992 98.112 223.224 101.472C222.84 103.392 222.312 104.832 221.64 105.792C220.584 107.424 219 108.48 216.888 108.96C214.872 109.344 212.664 109.104 210.264 108.24L207.816 107.376V110.4V113.424L214.296 113.712C218.328 113.904 224.472 114 232.728 114H244.824L244.536 112.992C244.344 112.32 244.248 111.312 244.248 109.968V107.808L241.08 107.52C238.392 107.232 236.328 106.704 234.888 105.936C233.544 105.072 232.392 103.728 231.432 101.904C230.76 100.56 230.088 99.264 229.416 98.016C228.168 95.52 227.544 91.968 227.544 87.36C227.544 82.56 228.216 77.856 229.56 73.248C231.48 67.008 233.112 62.64 234.456 60.144C235.8 57.648 237.72 55.488 240.216 53.664C242.712 51.84 244.92 50.88 246.84 50.784C248.76 50.592 250.824 51.168 253.032 52.512C254.28 53.28 255.624 54.432 257.064 55.968C258.6 57.504 259.656 58.848 260.232 60C262.44 64.32 264.024 70.704 264.984 79.152C265.368 82.32 265.608 87.072 265.704 93.408C265.896 99.648 265.848 103.008 265.56 103.488C265.08 104.352 264.168 105.168 262.824 105.936C261.48 106.704 260.232 107.088 259.08 107.088C258.792 107.088 258.168 107.136 257.208 107.232C256.248 107.232 255.576 107.232 255.192 107.232H253.176V109.248C253.176 110.496 253.272 111.6 253.464 112.56L253.752 113.856L271.176 114.288C282.696 114.384 288.504 114.384 288.6 114.288C288.696 114.288 288.648 113.088 288.456 110.688C288.36 108.768 288.12 107.664 287.736 107.376C287.448 107.088 286.248 106.752 284.136 106.368C282.6 106.176 281.496 105.84 280.824 105.36C280.248 104.88 279.576 103.968 278.808 102.624C278.328 101.664 278.04 100.512 277.944 99.168C277.848 97.824 277.8 93.984 277.8 87.648C277.8 79.008 278.04 73.392 278.52 70.8C281.304 57.936 287.832 51.456 298.104 51.36C300.792 51.36 302.856 51.744 304.296 52.512C306.024 53.376 307.416 54.528 308.472 55.968C309.528 57.312 310.44 59.28 311.208 61.872C311.976 64.368 312.456 67.248 312.648 70.512C312.936 73.776 313.032 79.632 312.936 88.08C312.84 95.472 312.696 100.08 312.504 101.904C312.408 103.728 312.168 104.976 311.784 105.648C311.112 106.8 310.296 107.52 309.336 107.808C308.376 108.096 306.264 108.192 303 108.096L297.24 107.952L297.528 110.976C297.624 112.992 297.768 114.096 297.96 114.288C298.056 114.48 304.392 114.672 316.968 114.864L335.976 115.008L336.12 113.28C336.312 112.512 336.408 111.696 336.408 110.832C336.504 109.872 336.504 109.104 336.408 108.528C336.312 107.952 336.216 107.664 336.12 107.664C335.256 107.664 333.72 107.472 331.512 107.088C329.4 106.704 328.008 106.416 327.336 106.224C326.472 105.84 325.56 105.216 324.6 104.352C323.64 103.392 323.064 101.952 322.872 100.032C322.776 98.112 322.872 93.984 323.16 87.648C323.64 79.104 322.92 71.04 321 63.456C319.08 55.872 316.344 50.352 312.792 46.896C310.776 44.976 308.136 43.488 304.872 42.432C301.608 41.376 298.488 40.992 295.512 41.28C292.056 41.664 288.168 43.056 283.848 45.456C280.488 47.472 277.752 49.968 275.64 52.944C274.68 54.384 273.864 55.344 273.192 55.824C272.616 56.208 271.752 56.4 270.6 56.4C269.64 56.4 268.728 56.064 267.864 55.392C267.096 54.72 265.896 53.232 264.264 50.928C262.152 48.144 258.744 45.984 254.04 44.448C249.336 42.912 245.112 42.528 241.368 43.296C239.736 43.68 238.536 44.208 237.768 44.88C237 45.552 236.376 46.608 235.896 48.048C235.416 49.68 234.792 50.832 234.024 51.504C233.352 52.08 232.44 52.416 231.288 52.512C230.04 52.608 229.032 52.272 228.264 51.504C227.592 50.736 226.488 48.912 224.952 46.032C223.224 42.96 221.88 41.232 220.92 40.848ZM355.327 9.6C357.727 9.40799 361.711 9.31199 367.279 9.31199C372.943 9.31199 377.647 9.40799 381.391 9.6C385.807 9.984 393.487 10.752 404.431 11.904L420.559 13.776L435.823 13.488C450.799 13.2 459.439 13.632 461.743 14.784C463.951 15.936 465.919 18.672 467.647 22.992C471.487 32.4 475.231 47.664 478.879 68.784C480.127 75.888 480.751 81.744 480.751 86.352C480.655 93.36 480.319 100.704 479.743 108.384C479.263 115.968 478.735 120.288 478.159 121.344C477.487 122.688 476.047 123.456 473.839 123.648C471.631 123.84 464.623 123.888 452.815 123.792C390.415 122.928 354.415 122.64 344.815 122.928L333.295 123.36L330.847 122.208C329.215 121.344 328.111 120.576 327.535 119.904C326.575 118.56 326.095 116.016 326.095 112.272C326.095 108.528 326.575 102.288 327.535 93.552C327.823 90.384 327.967 87.408 327.967 84.624C327.967 81.84 327.775 75.36 327.391 65.184C326.911 50.4 326.767 39.6 326.959 32.784C327.055 25.392 327.487 20.544 328.255 18.24C328.927 15.84 330.415 14.064 332.719 12.912C335.023 11.952 339.631 11.136 346.543 10.464C349.135 10.272 352.063 9.984 355.327 9.6ZM355.183 40.848C354.415 40.464 352.495 40.176 349.423 39.984C346.447 39.792 344.671 39.792 344.095 39.984C343.903 40.08 342.991 40.224 341.359 40.416L339.343 40.848L339.487 44.304C339.583 46.704 339.679 47.952 339.775 48.048C339.967 48.144 341.407 48 344.095 47.616C346.783 47.136 349.471 46.944 352.159 47.04C354.847 47.136 356.623 47.472 357.487 48.048C358.639 48.816 359.359 49.824 359.647 51.072C360.031 52.32 360.271 54.912 360.367 58.848C360.559 64.608 360.319 72.336 359.647 82.032C358.975 91.632 358.255 98.112 357.487 101.472C357.103 103.392 356.575 104.832 355.903 105.792C354.847 107.424 353.263 108.48 351.151 108.96C349.135 109.344 346.927 109.104 344.527 108.24L342.079 107.376V110.4V113.424L348.559 113.712C352.591 113.904 358.735 114 366.991 114H379.087L378.799 112.992C378.607 112.32 378.511 111.312 378.511 109.968V107.808L375.343 107.52C372.655 107.232 370.591 106.704 369.151 105.936C367.807 105.072 366.655 103.728 365.695 101.904C365.023 100.56 364.351 99.264 363.679 98.016C362.431 95.52 361.807 91.968 361.807 87.36C361.807 82.56 362.479 77.856 363.823 73.248C365.743 67.008 367.375 62.64 368.719 60.144C370.063 57.648 371.983 55.488 374.479 53.664C376.975 51.84 379.183 50.88 381.103 50.784C383.023 50.592 385.087 51.168 387.295 52.512C388.543 53.28 389.887 54.432 391.327 55.968C392.863 57.504 393.919 58.848 394.495 60C396.703 64.32 398.287 70.704 399.247 79.152C399.631 82.32 399.871 87.072 399.967 93.408C400.159 99.648 400.111 103.008 399.823 103.488C399.343 104.352 398.431 105.168 397.087 105.936C395.743 106.704 394.495 107.088 393.343 107.088C393.055 107.088 392.431 107.136 391.471 107.232C390.511 107.232 389.839 107.232 389.455 107.232H387.439V109.248C387.439 110.496 387.535 111.6 387.727 112.56L388.015 113.856L405.439 114.288C416.959 114.384 422.767 114.384 422.863 114.288C422.959 114.288 422.911 113.088 422.719 110.688C422.623 108.768 422.383 107.664 421.999 107.376C421.711 107.088 420.511 106.752 418.399 106.368C416.863 106.176 415.759 105.84 415.087 105.36C414.511 104.88 413.839 103.968 413.071 102.624C412.591 101.664 412.303 100.512 412.207 99.168C412.111 97.824 412.063 93.984 412.063 87.648C412.063 79.008 412.303 73.392 412.783 70.8C415.567 57.936 422.095 51.456 432.367 51.36C435.055 51.36 437.119 51.744 438.559 52.512C440.287 53.376 441.679 54.528 442.735 55.968C443.791 57.312 444.703 59.28 445.471 61.872C446.239 64.368 446.719 67.248 446.911 70.512C447.199 73.776 447.295 79.632 447.199 88.08C447.103 95.472 446.959 100.08 446.767 101.904C446.671 103.728 446.431 104.976 446.047 105.648C445.375 106.8 444.559 107.52 443.599 107.808C442.639 108.096 440.527 108.192 437.263 108.096L431.503 107.952L431.791 110.976C431.887 112.992 432.031 114.096 432.223 114.288C432.319 114.48 438.655 114.672 451.231 114.864L470.239 115.008L470.383 113.28C470.575 112.512 470.671 111.696 470.671 110.832C470.767 109.872 470.767 109.104 470.671 108.528C470.575 107.952 470.479 107.664 470.383 107.664C469.519 107.664 467.983 107.472 465.775 107.088C463.663 106.704 462.271 106.416 461.599 106.224C460.735 105.84 459.823 105.216 458.863 104.352C457.903 103.392 457.327 101.952 457.135 100.032C457.039 98.112 457.135 93.984 457.423 87.648C457.903 79.104 457.183 71.04 455.263 63.456C453.343 55.872 450.607 50.352 447.055 46.896C445.039 44.976 442.399 43.488 439.135 42.432C435.871 41.376 432.751 40.992 429.775 41.28C426.319 41.664 422.431 43.056 418.111 45.456C414.751 47.472 412.015 49.968 409.903 52.944C408.943 54.384 408.127 55.344 407.455 55.824C406.879 56.208 406.015 56.4 404.863 56.4C403.903 56.4 402.991 56.064 402.127 55.392C401.359 54.72 400.159 53.232 398.527 50.928C396.415 48.144 393.007 45.984 388.303 44.448C383.599 42.912 379.375 42.528 375.631 43.296C373.999 43.68 372.799 44.208 372.031 44.88C371.263 45.552 370.639 46.608 370.159 48.048C369.679 49.68 369.055 50.832 368.287 51.504C367.615 52.08 366.703 52.416 365.551 52.512C364.303 52.608 363.295 52.272 362.527 51.504C361.855 50.736 360.751 48.912 359.215 46.032C357.487 42.96 356.143 41.232 355.183 40.848ZM467.99 11.472C472.31 11.088 482.294 11.04 497.942 11.328C513.59 11.616 525.878 12.096 534.806 12.768C552.854 14.112 562.79 15.264 564.614 16.224C569.894 18.912 573.638 36.528 575.846 69.072C576.422 77.904 576.71 88.608 576.71 101.184C576.71 113.76 576.422 121.152 575.846 123.36C575.078 126.144 573.59 127.824 571.382 128.4C570.134 128.688 566.054 129.024 559.142 129.408C552.71 129.696 538.166 129.744 515.51 129.552C492.95 129.456 479.366 129.216 474.758 128.832C469.286 128.448 465.926 127.872 464.678 127.104C463.43 126.336 462.662 124.464 462.374 121.488C461.606 114 460.55 89.328 459.206 47.472C458.822 37.008 458.438 30.768 458.054 28.752C456.806 23.088 456.662 19.056 457.622 16.656C458.294 14.928 459.35 13.728 460.79 13.056C462.134 12.288 464.534 11.76 467.99 11.472ZM497.654 43.44C497.558 42.768 497.27 42.384 496.79 42.288C496.31 42.192 493.43 42.144 488.15 42.144C482.966 42.048 480.134 42.096 479.654 42.288C479.27 42.384 478.07 42.576 476.054 42.864C474.422 43.152 473.462 43.392 473.174 43.584C472.886 43.776 472.742 44.208 472.742 44.88C472.742 46.608 472.934 47.616 473.318 47.904C473.798 48.192 475.334 48.336 477.926 48.336C482.438 48.336 485.27 49.104 486.422 50.64C486.998 51.504 487.43 54.816 487.718 60.576C488.102 71.616 488.582 79.776 489.158 85.056C489.734 90.24 490.55 94.56 491.606 98.016C493.622 104.352 496.694 108.96 500.822 111.84C503.318 113.472 505.67 114.432 507.878 114.72C510.086 115.008 512.966 114.72 516.518 113.856C522.566 112.32 527.126 110.064 530.198 107.088C532.886 104.496 535.334 103.728 537.542 104.784C539.27 105.552 540.71 107.76 541.862 111.408L542.582 113.856L549.638 113.712C554.438 113.52 556.982 113.424 557.27 113.424C557.558 113.232 557.702 112.272 557.702 110.544V107.808L556.262 108.096C554.534 108.384 552.614 107.808 550.502 106.368C548.486 104.832 546.902 102.912 545.75 100.608C544.886 98.592 544.214 94.848 543.734 89.376C543.254 83.808 542.822 74.832 542.438 62.448C542.15 50.16 541.91 43.92 541.718 43.728C541.43 43.536 538.31 43.344 532.358 43.152L523.286 42.864L522.71 46.032C522.422 48.336 522.278 49.536 522.278 49.632C522.278 49.824 523.382 49.872 525.59 49.776C527.702 49.68 529.43 49.776 530.774 50.064C532.118 50.448 533.318 51.216 534.374 52.368C535.526 53.424 536.294 54.624 536.678 55.968C537.35 58.656 537.302 64.416 536.534 73.248C535.862 81.984 534.806 89.088 533.366 94.56C532.598 97.824 531.254 100.752 529.334 103.344C527.414 105.84 525.254 107.616 522.854 108.672C521.51 109.248 519.926 109.536 518.102 109.536C516.278 109.44 514.694 109.008 513.35 108.24C509.702 106.416 506.582 103.056 503.99 98.16C501.398 93.264 499.862 87.84 499.382 81.888C498.23 69.792 497.702 58.944 497.798 49.344C497.798 46.08 497.75 44.112 497.654 43.44ZM596.263 10.032C605.671 9.83999 616.663 9.79199 629.239 9.88799C641.815 9.98399 649.255 10.224 651.559 10.608C656.263 11.184 658.999 12.432 659.767 14.352C660.631 16.464 662.167 25.728 664.375 42.144C666.679 58.56 668.503 74.208 669.847 89.088C670.423 95.04 670.759 101.28 670.855 107.808C670.951 114.336 670.807 118.368 670.423 119.904C669.943 121.248 668.839 122.736 667.111 124.368C665.479 126.096 663.991 127.152 662.647 127.536C659.575 128.304 650.167 128.256 634.423 127.392C618.679 126.528 599.863 124.992 577.975 122.784C568.183 121.824 562.855 121.104 561.991 120.624C560.455 119.568 559.447 117.168 558.967 113.424C558.391 109.584 558.103 102.72 558.103 92.832C558.199 81.12 559.015 61.488 560.551 33.936C561.127 22.704 561.655 16.608 562.135 15.648C562.519 14.688 563.431 13.824 564.871 13.056C566.887 12.096 569.767 11.424 573.511 11.04C577.351 10.656 584.935 10.32 596.263 10.032ZM624.487 42.144C622.279 41.472 620.503 41.136 619.159 41.136C611.575 41.424 605.815 43.248 601.879 46.608C599.383 48.624 597.223 49.632 595.399 49.632C594.247 49.632 593.143 49.152 592.087 48.192C591.127 47.232 590.647 46.176 590.647 45.024V43.296L582.151 43.44C576.487 43.536 573.511 43.68 573.223 43.872C573.031 44.16 573.127 45.12 573.511 46.752L574.087 49.2L577.975 49.344C582.199 49.536 585.175 50.88 586.903 53.376C588.439 55.584 589.399 58.608 589.783 62.448C590.167 66.192 590.167 72.672 589.783 81.888C589.399 91.872 588.967 98.256 588.487 101.04C588.007 103.728 586.951 105.648 585.319 106.8C584.551 107.28 583.783 107.568 583.015 107.664C582.247 107.76 580.183 107.712 576.823 107.52L569.911 107.232L570.631 108.96C571.111 110.112 571.399 110.832 571.495 111.12C571.687 111.408 575.287 111.6 582.295 111.696C588.919 111.696 595.207 111.936 601.159 112.416C606.919 112.896 609.799 113.136 609.799 113.136C609.895 113.04 609.991 112.128 610.087 110.4L610.375 107.808L605.191 107.664C601.735 107.472 599.431 107.184 598.279 106.8C596.647 106.32 595.639 105.456 595.255 104.208C594.967 102.96 594.631 99.168 594.247 92.832C593.863 84.576 593.911 78.192 594.391 73.68C594.871 69.168 595.975 65.136 597.703 61.584C599.143 58.512 601.111 55.92 603.607 53.808C606.103 51.696 608.791 50.352 611.671 49.776C614.455 49.2 616.807 49.2 618.727 49.776C620.647 50.256 622.519 51.36 624.343 53.088C628.087 56.928 630.727 64.704 632.263 76.416C632.647 79.296 632.983 84.24 633.271 91.248C633.655 98.256 633.703 102.144 633.415 102.912C633.319 103.68 632.743 104.544 631.687 105.504C630.727 106.464 629.719 107.136 628.663 107.52C627.415 107.904 625.687 108.192 623.479 108.384C621.559 108.576 620.311 108.864 619.735 109.248C619.255 109.632 619.015 110.496 619.015 111.84V113.568L621.319 113.712C627.751 114.384 636.679 114.912 648.103 115.296L656.743 115.584V111.84V108.24H653.719C648.535 108.144 645.175 107.232 643.639 105.504C643.063 104.832 642.679 104.256 642.487 103.776C642.391 103.2 642.343 101.904 642.343 99.888C642.343 96.912 642.583 92.832 643.063 87.648C644.215 75.744 644.215 67.2 643.063 62.016C642.007 56.928 639.847 52.656 636.583 49.2C633.319 45.648 629.287 43.296 624.487 42.144ZM686.701 87.504C686.701 87.408 686.749 87.312 686.845 87.216C686.749 87.216 686.653 87.216 686.557 87.216C686.653 87.312 686.701 87.408 686.701 87.504ZM722.845 14.208C725.149 14.304 727.309 14.4 729.325 14.496C733.069 14.688 736.045 14.976 738.253 15.36C741.421 15.744 743.581 16.416 744.733 17.376C745.693 18.048 746.509 19.2 747.181 20.832C747.565 21.888 747.949 23.232 748.333 24.864C749.101 27.84 749.821 31.728 750.493 36.528C751.741 46.032 752.701 56.88 753.373 69.072C753.949 82.032 753.997 92.88 753.517 101.616C753.229 106.512 752.701 110.4 751.933 113.28C751.549 115.008 751.069 116.448 750.493 117.6C749.533 119.424 748.237 120.624 746.605 121.2C744.205 122.064 738.973 122.976 730.909 123.936C722.941 124.896 714.493 125.616 705.565 126.096C695.485 126.672 686.989 126.816 680.077 126.528C671.149 126.048 665.341 124.752 662.653 122.64C661.693 121.968 660.925 120.816 660.349 119.184C659.965 118.128 659.629 116.832 659.341 115.296C658.765 112.608 658.141 108.96 657.469 104.352C656.509 96.864 655.501 86.64 654.445 73.68C653.869 66.48 653.149 57.312 652.285 46.176C651.613 36.384 651.229 30.72 651.133 29.184V28.896C651.037 28.704 650.989 28.464 650.989 28.176V27.888C650.893 27.024 650.797 26.256 650.701 25.584C650.701 24.432 650.749 23.376 650.845 22.416C651.037 21.744 651.229 21.12 651.421 20.544C651.901 19.584 652.525 18.816 653.293 18.24C655.981 16.32 659.677 15.024 664.381 14.352C667.645 13.872 671.773 13.68 676.765 13.776C678.493 13.872 680.605 13.968 683.101 14.064C689.149 13.968 695.149 13.92 701.101 13.92C701.677 13.824 702.013 13.776 702.109 13.776C705.085 13.488 707.629 13.296 709.741 13.2C713.389 13.008 716.509 13.056 719.101 13.344C720.445 13.536 721.693 13.824 722.845 14.208ZM664.381 34.08C664.381 33.984 664.429 33.888 664.525 33.792H664.381C664.381 33.888 664.381 33.984 664.381 34.08ZM679.933 65.76C680.413 60.768 682.381 56.784 685.837 53.808C689.293 50.832 693.517 49.392 698.509 49.488C703.309 49.584 707.725 51.12 711.757 54.096C715.789 56.976 718.717 60.816 720.541 65.616C721.309 67.824 720.733 69.552 718.813 70.8C717.949 72.048 716.749 72.672 715.213 72.672C712.813 72.672 709.117 72.48 704.125 72.096C702.685 71.904 701.581 71.808 700.813 71.808C694.477 71.232 689.533 71.328 685.981 72.096C684.829 72.384 683.725 72.24 682.669 71.664C681.709 70.992 681.085 70.032 680.797 68.784V68.64C680.221 67.776 679.933 66.816 679.933 65.76ZM682.093 79.008C689.869 78.048 700.285 77.856 713.341 78.432C714.877 78.432 717.133 78.528 720.109 78.72C725.005 78.912 728.653 79.056 731.053 79.152C734.125 70.224 733.549 62.256 729.325 55.248C725.293 48.24 719.005 43.584 710.461 41.28C701.821 38.976 693.901 39.936 686.701 44.16C678.445 48.96 673.117 57.216 670.717 68.928C667.933 82.272 669.421 93.264 675.181 101.904C680.269 109.392 687.421 113.856 696.637 115.296C705.565 116.736 713.293 114.96 719.821 109.968C726.541 104.88 730.141 97.488 730.621 87.792C728.893 87.696 726.685 87.6 723.997 87.504C724.189 88.368 724.093 89.232 723.709 90.096C720.829 96.72 716.845 101.712 711.757 105.072C706.861 108.24 701.725 109.488 696.349 108.816C691.069 108.144 686.701 105.792 683.245 101.76C679.693 97.536 677.917 92.256 677.917 85.92C677.917 85.248 678.061 84.624 678.349 84.048C678.349 83.952 678.349 83.856 678.349 83.76C678.157 82.608 678.445 81.552 679.213 80.592C679.981 79.632 680.941 79.104 682.093 79.008ZM803.303 1.536C820.199 1.248 828.743 1.008 828.935 0.815998C829.127 0.623995 834.023 0.575993 843.623 0.671991C853.319 0.767996 859.367 0.911997 861.767 1.10399C867.047 1.58399 870.695 2.25599 872.711 3.11999C874.823 3.888 876.311 5.27999 877.175 7.29599C878.711 10.848 879.863 18.72 880.631 30.912C881.495 43.008 881.687 55.68 881.207 68.928C879.959 106.656 875.303 127.536 867.239 131.568C866.279 132.048 864.791 132.624 862.775 133.296C859.799 134.16 857.063 134.736 854.567 135.024C852.167 135.312 847.991 135.408 842.039 135.312C834.551 135.312 827.351 134.88 820.439 134.016C813.623 133.248 804.983 132.72 794.519 132.432C787.127 132.24 782.423 132.048 780.407 131.856C778.487 131.76 776.615 131.472 774.791 130.992C769.511 129.552 765.959 128.016 764.135 126.384C760.775 123.312 758.375 103.536 756.935 67.056C756.647 59.568 756.551 49.488 756.647 36.816C756.743 24.048 756.983 16.368 757.367 13.776C757.943 10.128 758.663 7.68 759.527 6.43199C760.295 5.08799 761.639 4.27199 763.559 3.98399C765.479 3.79199 766.967 3.6 768.023 3.408C772.247 2.544 784.007 1.92 803.303 1.536ZM824.183 17.808C813.815 15.216 804.167 17.376 795.239 24.288C789.863 28.416 785.207 34.608 781.271 42.864C777.431 51.12 775.223 59.376 774.647 67.632C774.263 73.68 775.175 80.256 777.383 87.36C779.687 94.368 782.711 100.32 786.455 105.216C789.719 109.344 795.719 112.608 804.455 115.008C806.855 115.68 810.743 116.016 816.119 116.016C821.591 116.016 825.527 115.68 827.927 115.008C834.359 113.28 839.543 110.784 843.479 107.52C847.415 104.16 850.391 99.792 852.407 94.416C853.079 92.592 853.415 89.952 853.415 86.496C853.511 83.04 853.271 80.064 852.695 77.568C852.119 75.36 851.159 72.912 849.815 70.224C848.471 67.536 847.079 65.328 845.639 63.6C842.567 60.048 838.631 57.216 833.831 55.104C829.127 52.992 824.183 51.936 818.999 51.936C815.447 51.936 811.511 52.608 807.191 53.952C802.871 55.296 799.223 57.024 796.247 59.136C792.983 61.344 790.391 61.488 788.471 59.568C787.511 58.704 787.079 57.648 787.175 56.4C787.271 55.152 787.943 52.944 789.191 49.776C791.303 44.4 793.847 39.936 796.823 36.384C801.431 31.008 806.663 27.552 812.519 26.016C818.471 24.384 824.135 24.96 829.511 27.744C831.431 28.704 832.727 29.52 833.399 30.192C834.071 30.864 834.407 31.776 834.407 32.928C834.407 33.888 833.879 34.944 832.823 36.096C830.903 38.016 830.807 39.744 832.535 41.28C834.071 42.816 836.663 43.872 840.311 44.448L841.895 44.88L843.191 41.424C844.727 37.968 845.543 35.328 845.639 33.504C845.831 31.584 845.351 29.904 844.199 28.464C842.759 26.64 839.975 24.624 835.847 22.416C831.719 20.208 827.831 18.672 824.183 17.808ZM812.519 55.968C820.295 54.816 827.015 56.208 832.679 60.144C836.327 62.736 839.015 66.192 840.743 70.512C842.471 74.832 842.903 79.392 842.039 84.192C841.271 88.704 840.071 92.496 838.439 95.568C837.095 98.16 834.791 100.656 831.527 103.056C828.359 105.456 825.143 107.088 821.879 107.952C816.407 109.392 810.695 108.816 804.743 106.224C798.887 103.632 794.759 99.936 792.359 95.136C790.823 92.16 790.151 88.224 790.343 83.328C790.823 75.456 793.991 68.592 799.847 62.736C803.495 58.992 807.719 56.736 812.519 55.968ZM883.72 5.568C887.176 5.37599 895.096 5.32799 907.48 5.424C919.864 5.52 929.224 5.712 935.56 5.99999C953.128 6.86399 963.112 7.87199 965.512 9.024C967.624 9.98399 969.304 13.104 970.552 18.384C971.896 23.568 973 31.44 973.864 42C974.248 46.8 974.44 56.592 974.44 71.376C974.44 86.16 974.248 95.808 973.864 100.32C972.904 111.264 971.608 118.176 969.976 121.056C968.632 123.36 965.128 124.992 959.464 125.952C953.8 126.912 944.056 127.536 930.232 127.824C919.864 128.016 909.64 127.872 899.56 127.392C889.576 126.912 882.424 126.192 878.104 125.232C875.128 124.656 873.112 123.36 872.056 121.344C870.808 119.328 869.944 113.184 869.464 102.912C868.984 92.544 868.936 79.824 869.32 64.752C869.704 51.984 869.944 39.84 870.04 28.32C870.04 19.776 870.184 14.592 870.472 12.768C870.664 10.944 871.24 9.45599 872.2 8.304C873.64 6.864 877.48 5.952 883.72 5.568ZM932.968 18.672C930.472 17.712 927.832 17.28 925.048 17.376C918.232 17.376 911.416 18.864 904.6 21.84C897.88 24.72 892.36 28.464 888.04 33.072C885.256 36.144 883.528 38.832 882.856 41.136C882.184 43.44 882.472 45.84 883.72 48.336C884.584 49.968 885.496 51.024 886.456 51.504C888.76 52.656 891.544 52.656 894.808 51.504C898.168 50.256 900.184 48.528 900.856 46.32C901.24 45.36 901.24 44.544 900.856 43.872C900.472 43.104 899.608 42.192 898.264 41.136C894.328 37.968 894.952 33.984 900.136 29.184C902.728 26.784 906.136 25.056 910.36 24C914.584 22.944 919 22.752 923.608 23.424C928.024 24 931.864 25.248 935.128 27.168C938.392 28.992 940.696 31.248 942.04 33.936C945.016 39.984 945.208 45.648 942.616 50.928C940.792 54.576 937.528 57.744 932.824 60.432C928.216 63.12 920.632 66.24 910.072 69.792C903.64 72 899.176 73.728 896.68 74.976C894.28 76.224 891.784 78.144 889.192 80.736C886.792 83.136 885.016 85.488 883.864 87.792C882.712 90.096 881.944 92.976 881.56 96.432C881.176 99.024 881.224 100.848 881.704 101.904C882.568 103.632 883.192 104.592 883.576 104.784C883.96 104.88 884.92 104.448 886.456 103.488C889.24 101.856 892.456 100.8 896.104 100.32C899.752 99.84 903.352 100.08 906.904 101.04C909.016 101.52 911.08 102.288 913.096 103.344C915.208 104.4 918.664 106.368 923.464 109.248C927.88 112.032 931.384 113.952 933.976 115.008C937.624 116.448 940.84 116.88 943.624 116.304C946.408 115.728 949.048 114.048 951.544 111.264C955.96 106.464 958.168 100.656 958.168 93.84C958.168 91.056 957.592 88.512 956.44 86.208C955.384 83.904 953.944 82.272 952.12 81.312C950.104 80.256 947.416 80.4 944.056 81.744C940.696 83.088 938.152 85.008 936.424 87.504C935.272 89.232 934.936 90.768 935.416 92.112C935.896 93.36 937.096 94.176 939.016 94.56C941.32 94.944 943.192 93.792 944.632 91.104C945.304 89.664 945.88 88.8 946.36 88.512C946.936 88.128 947.992 87.936 949.528 87.936C952.216 87.936 953.944 88.704 954.712 90.24C955.672 92.064 955.384 94.608 953.848 97.872C952.312 101.04 950.2 103.584 947.512 105.504C944.632 107.424 941.224 108.192 937.288 107.808C934.888 107.52 932.248 106.848 929.368 105.792C926.584 104.64 922.072 102.528 915.832 99.456C909.496 96.288 905.272 94.464 903.16 93.984C901.432 93.6 900.328 93.456 899.848 93.552C899.368 93.648 898.024 94.272 895.816 95.424C894.76 96 893.56 95.952 892.216 95.28C890.968 94.608 890.2 93.6 889.912 92.256C889.528 90.912 889.624 89.76 890.2 88.8C890.776 87.744 892.312 86.064 894.808 83.76C897.976 80.976 900.04 79.344 901 78.864C905.32 76.752 908.824 75.36 911.512 74.688C914.392 73.824 917.608 72.768 921.16 71.52C932.296 67.68 940.408 64.128 945.496 60.864C950.584 57.6 953.896 53.808 955.432 49.488C956.392 46.608 956.344 43.248 955.288 39.408C954.616 36.912 953.896 35.04 953.128 33.792C952.36 32.448 950.968 30.768 948.952 28.752C944.728 24.624 939.4 21.264 932.968 18.672Z" fill="#4F4F4F"/>
</g>
<defs>
<filter id="filter0_d" x="0.791992" y="0.623993" width="977.648" height="142.724" filterUnits="userSpaceOnUse" color-interpolation-filters="sRGB">
<feFlood flood-opacity="0" result="BackgroundImageFix"/>
<feColorMatrix in="SourceAlpha" type="matrix" values="0 0 0 0 0 0 0 0 0 0 0 0 0 0 0 0 0 0 127 0"/>
<feOffset dy="4"/>
<feGaussianBlur stdDeviation="2"/>
<feColorMatrix type="matrix" values="0 0 0 0 0 0 0 0 0 0 0 0 0 0 0 0 0 0 0.25 0"/>
<feBlend mode="normal" in2="BackgroundImageFix" result="effect1_dropShadow"/>
<feBlend mode="normal" in="SourceGraphic" in2="effect1_dropShadow" result="shape"/>
</filter>
</defs>
</svg>
